<?xml version="1.0" encoding="utf-8"?>
<!-- Generator: Adobe Illustrator 23.0.6, SVG Export Plug-In . SVG Version: 6.00 Build 0)  -->
<svg version="1.1" id="Capa_1" xmlns="http://www.w3.org/2000/svg" xmlns:xlink="http://www.w3.org/1999/xlink" x="0px" y="0px"
	 viewBox="0 0 512 586.9" style="enable-background:new 0 0 512 586.9;" xml:space="preserve">
<g>
	<path d="M241,391.6c-20.7-20.4-47.8-32.8-77.1-35c-11.1-0.8-22.2-0.2-32.9,1.9l-30,10c-9.2,4.4-17.9,10.1-25.8,16.8l-12,10.1
		l-53.1,22.8c-3.7,1.6-6.5,4.5-8,8.2c-1.5,3.7-1.4,7.8,0.1,11.5l60,140c2.4,5.7,8,9.1,13.8,9.1c2,0,4-0.4,5.9-1.2l52.3-22.4h198.1
		c18.5,0,36.3-6.8,50.1-19.2L496,442.1c18.5-16.6,20.1-45.1,3.6-63.7v0c-16.5-18.6-45.1-20.3-63.8-3.8l-24.8,22l-30,26.5l-20.5,18.1
		c0.1-1.1,0.1-2.1,0.1-3.2c0-24.8-20.2-45-45-45l-44.6,0.1L241,391.6z M83.9,552.2L35.7,439.8L63.3,428l48.2,112.4L83.9,552.2z
		 M476,419.8L362.4,521.8c-8.3,7.4-18.9,11.5-30.1,11.5H141.1L89.3,412.6l5.2-4.4c8.1-6.8,17.2-12.2,26.8-15.9
		c0.2-0.1,0.4-0.1,0.6-0.2c12.5-4.7,26-6.6,39.7-5.6c24.5,1.8,46.9,13,63.1,31.5c2.8,3.2,7,5.1,11.3,5.1h0l19.3,0c0.2,0,0.4,0,0.6,0
		c0.2,0,0.5,0,0.7,0l59-0.1c8.3,0,15,6.7,15,15c0,8.3-6.7,15-15,15H212.4c-8.3,0-15,6.7-15,15s6.7,15,15,15h129.1
		c11,0,21.6-4,29.8-11.3l84.3-74.6c6.3-5.5,15.9-5,21.5,1.3C482.7,404.6,482.2,414.3,476,419.8z"/>
</g>
<path d="M341.4,299.4c-8.8,10.3-23,13.5-35.4,8.1c-14.7-6.5-30.5-9.7-46.4-9.7c-15.8,0-31.6,3.2-46.3,9.7l-0.4,0.2
	c-12.3,5.2-26.3,1.9-35-8.3c-8.8-10.3-9.8-24.9-2.5-36.3l34.6-54c10.9-17,29.5-27.2,49.7-27.2s38.8,10.2,49.7,27.2l34.6,54
	C351.2,274.5,350.2,289.1,341.4,299.4z M332.4,193.9c-16-24.9-43.1-39.7-72.7-39.7c-29.6,0-56.7,14.9-72.7,39.7l-38.4,60
	c-6.4,10-9.3,21.4-8.5,33.2c0.8,11.8,5.3,22.8,13,31.8c7.7,9,17.8,15.1,29.4,17.8c11.5,2.6,23.3,1.5,34.2-3.2l0.7-0.3
	c27.2-11.7,58.4-11.6,85.5,0.3c7,3.1,14.4,4.6,21.9,4.6c4.1,0,8.2-0.5,12.2-1.4c11.5-2.6,21.7-8.8,29.4-17.8c7.7-9,12.2-20,13-31.8
	c0.8-11.8-2.1-23.3-8.5-33.2L332.4,193.9z"/>
<path d="M158.9,193.8c11.4-4.4,20.1-13.6,24.5-26c4.1-11.7,3.8-25-1-37.3c-4.7-12.3-13.4-22.4-24.3-28.3
	c-11.5-6.2-24.1-7.3-35.5-2.9c-23,8.8-33.5,37.2-23.5,63.3c8,20.8,26.7,33.9,45.5,33.9C149.4,196.4,154.2,195.6,158.9,193.8z
	 M120.7,154.3c-5.3-13.8-0.6-28.5,10.4-32.8c2-0.8,4.1-1.2,6.3-1.2c3.3,0,6.8,0.9,10.1,2.7c5.9,3.2,10.7,8.8,13.4,15.8
	c2.7,7,2.9,14.3,0.7,20.7c-2.1,5.8-6,10.1-11.1,12.1l0,0C139.3,175.9,126,168.1,120.7,154.3z"/>
<path d="M233.5,146.8c28.7,0,52.1-26.6,52.1-59.3c0-32.7-23.4-59.3-52.1-59.3c-28.7,0-52.1,26.6-52.1,59.3
	C181.4,120.2,204.8,146.8,233.5,146.8z M233.5,52.8c15.5,0,28.2,15.6,28.2,34.7c0,19.1-12.6,34.7-28.2,34.7s-28.2-17.5-28.2-34.7
	C205.3,70.2,218,52.8,233.5,52.8z"/>
<path d="M323.4,161.4L323.4,161.4c4.4,1.5,8.9,2.2,13.4,2.2c20.9,0,41.3-15.2,49.1-38.7c4.5-13.5,4.2-27.7-0.8-40.1
	c-5.3-13-15-22.4-27.4-26.5c-12.4-4.1-25.9-2.4-37.9,4.8c-11.4,6.9-20.2,18.2-24.7,31.7C285.7,123.1,298.4,153,323.4,161.4z
	 M317.5,102.1c2.6-7.9,7.7-14.5,14.2-18.4c6-3.6,12.6-4.6,18.5-2.6c5.9,2,10.6,6.6,13.2,13.2c2.9,7,3,15.3,0.3,23.2
	c-5.3,15.8-19.9,25.2-32.6,21C318.3,134.2,312.2,117.9,317.5,102.1z"/>
<path d="M433.1,154.4L433.1,154.4c-19.8-14.6-49.4-8.3-66,14.1c-16.6,22.4-14,52.6,5.8,67.2c7.2,5.3,15.7,7.9,24.5,7.9
	c15.2,0,31-7.8,41.6-22C455.5,199.3,452.9,169.1,433.1,154.4z M420.3,207.9c-8.8,11.9-23.7,15.9-33.3,8.8c-9.5-7-10.1-22.5-1.3-34.4
	c5.8-7.9,14.4-12.3,22.3-12.3c4,0,7.8,1.1,11,3.5C428.5,180.6,429.1,196,420.3,207.9z"/>
</svg>
