<?xml version="1.0" encoding="utf-8"?>
<!-- Generator: Adobe Illustrator 23.0.3, SVG Export Plug-In . SVG Version: 6.00 Build 0)  -->
<svg version="1.1" id="Layer_1" xmlns="http://www.w3.org/2000/svg" xmlns:xlink="http://www.w3.org/1999/xlink" x="0px" y="0px"
	 viewBox="0 0 480 480" style="enable-background:new 0 0 480 480;" xml:space="preserve">
<style type="text/css">
	.st0{fill:#6C757D;}
</style>
<path class="st0" d="M440,296c0-4.4-3.6-8-8-8h-32V152c0-4.4-3.6-8-8-8h-96V72h-16V54.5c9.6-3.4,16-12.4,16-22.5
	c0-11.4-14.2-25.7-18.5-29.8c-3.1-2.9-7.9-2.9-11,0C262.2,6.3,248,20.6,248,32c0,10.1,6.4,19.1,16,22.5V72h-16v72h-16V72h-16V54.5
	c9.6-3.4,16-12.4,16-22.5c0-11.4-14.2-25.7-18.5-29.8c-3.1-2.9-7.9-2.9-11,0C198.2,6.3,184,20.6,184,32c0,10.1,6.4,19.1,16,22.5V72
	h-16v72H88c-4.4,0-8,3.6-8,8v136H48c-4.4,0-8,3.6-8,8v136H0v48h480v-48h-40V296z M272,19.6c3.5,3.5,6.3,7.7,8,12.4c0,4.4-3.6,8-8,8
	s-8-3.6-8-8C265.7,27.3,268.5,23.1,272,19.6z M208,19.6c3.5,3.5,6.3,7.7,8,12.4c0,4.4-3.6,8-8,8s-8-3.6-8-8
	C201.7,27.3,204.5,23.1,208,19.6z M96,200h288v48H96V200z M264,88h16v56h-16V88z M200,88h16v56h-16V88z M384,160v24H96v-24H384z
	 M96,264h288v24H96V264z M56,304h368v64.8c-6.1,1.6-11.7,4.7-16.3,9c-3.6,3.9-8.8,6.2-14.1,6.2c-5.4,0-10.5-2.2-14.1-6.2
	c-13.6-13.1-35.1-13.1-48.7,0c-3.6,3.9-8.7,6.2-14.1,6.2c-5.3,0-10.4-2.2-14.1-6.2c-13.5-13.1-35.1-13.1-48.6,0
	c-3.6,3.9-8.7,6.1-14.1,6.1c-5.3,0-10.4-2.2-14.1-6.1c-13.5-13.1-35.1-13.1-48.6,0c-3.6,3.9-8.7,6.1-14.1,6.1s-10.4-2.2-14.1-6.1
	c-13.5-13.1-35.1-13.1-48.6,0c-3.6,3.9-8.7,6.1-14.1,6.1c-5.3,0-10.4-2.2-14.1-6.1c-4.6-4.3-10.2-7.4-16.3-9V304z M56,385.8
	c2.2,1.2,4.2,2.7,6.1,4.4c13.5,13.1,35.1,13.1,48.6,0c3.6-3.9,8.7-6.1,14.1-6.1c5.3,0,10.4,2.2,14.1,6.1c13.6,13.1,35.1,13.1,48.6,0
	c3.6-3.9,8.7-6.1,14.1-6.1s10.4,2.2,14.1,6.1c13.5,13.1,35.1,13.1,48.6,0c3.6-3.9,8.7-6.1,14.1-6.1s10.4,2.2,14.1,6.1
	c13.6,13.1,35.1,13.1,48.6,0c3.6-3.9,8.7-6.2,14.1-6.2s10.5,2.2,14.1,6.2c13.6,13.1,35.1,13.1,48.7,0c1.9-1.7,3.9-3.2,6.1-4.4V432
	H56V385.8z M464,464H16v-16h448V464z"/>
<path class="st0" d="M136,216h32v16h-32V216z"/>
<path class="st0" d="M184,216h16v16h-16V216z"/>
<path class="st0" d="M216,216h32v16h-32V216z"/>
<path class="st0" d="M264,216h16v16h-16V216z"/>
<path class="st0" d="M296,216h24v16h-24V216z"/>
<path class="st0" d="M336,216h16v16h-16V216z"/>
<path class="st0" d="M82.3,338.3l16-16l11.3,11.3l-16,16L82.3,338.3z"/>
<path class="st0" d="M146.3,349.7l11.3-11.3l16,16l-11.3,11.3L146.3,349.7z"/>
<path class="st0" d="M194.3,330.3l16-16l11.3,11.3l-16,16L194.3,330.3z"/>
<path class="st0" d="M258.3,341.7l11.3-11.3l16,16l-11.3,11.3L258.3,341.7z"/>
<path class="st0" d="M322.3,330.3l16-16l11.3,11.3l-16,16L322.3,330.3z"/>
<path class="st0" d="M378.3,349.7l11.3-11.3l16,16l-11.3,11.3L378.3,349.7z"/>
</svg>
