<?xml version="1.0" encoding="utf-8"?>
<!-- Generator: Adobe Illustrator 23.0.6, SVG Export Plug-In . SVG Version: 6.00 Build 0)  -->
<svg version="1.1" id="Capa_1" xmlns="http://www.w3.org/2000/svg" xmlns:xlink="http://www.w3.org/1999/xlink" x="0px" y="0px"
	 viewBox="0 0 512 512" style="enable-background:new 0 0 512 512;" xml:space="preserve">
<style type="text/css">
	.st0{fill:#00002A;}
</style>
<g>
	<g>
		<path class="st0" d="M135,196H75c-8.3,0-15,6.7-15,15s6.7,14.8,15,14.8h60c8.3,0,15-6.5,15-14.8S143.3,196,135,196z"/>
	</g>
</g>
<g>
	<g>
		<path class="st0" d="M135,256H75c-8.3,0-15,6.7-15,15s6.7,14.8,15,14.8h60c8.3,0,15-6.5,15-14.8S143.3,256,135,256z"/>
	</g>
</g>
<g>
	<g>
		<path class="st0" d="M452,167.5V61c0-24.8-20.2-45-45-45c-22.4,0-41,16.4-44.4,37.9L294,103.4c-0.1,0-0.1,0.1-0.2,0.1
			c-28.2,21-63.2,32.5-98.3,32.5H75c-41.4,0-75,33.6-75,75v60c0,41.4,33.6,75,75,75l15-0.2V451c0,24.8,20.2,45,45,45s45-20.2,45-45
			v-45h15c24.8,0,45-20.2,45-45v-8.7c19.4,5.5,37.8,14.5,54,26.7c0.1,0,0.1,0.1,0.2,0.1l68.6,50.1C366.6,450.1,385,466,407,466
			c24.8,0,45-20.2,45-45V314.5c34.2-7,60-37.3,60-73.5S486.2,174.5,452,167.5z M150,451c0,8.3-6.7,15-15,15s-15-6.7-15-15V345.8h30
			V451z M75,316c-24.8,0-45-20.2-45-45v-60c0-24.8,20.2-45.2,45-45.2h105V316H75z M210,361c0,8.3-6.7,15-15,15h-15v-30.2
			c15.9,0,20.7,0,30,0.9V361z M362.2,391.5l-50.3-36.5c-29.5-22.1-65.2-35.5-101.9-38.3V165.4c36.5-2.8,72.2-15.9,101.6-37.8
			l50.6-36.4L362.2,391.5L362.2,391.5z M422.2,421c0,8.3-6.9,15-15.2,15c-8.3,0-15-6.7-15-15V61c0-8.3,6.7-15,15-15
			s15.2,6.7,15.2,15V421z M452,283.4v-84.8c17.5,6.2,30,22.9,30,42.4S469.5,277.2,452,283.4z"/>
	</g>
</g>
</svg>
