<svg height="512pt" viewBox="0 -24 512 512" width="512pt" xmlns="http://www.w3.org/2000/svg"><path d="m468.019531 51.050781h-60.921875v-8.820312c0-23.285157-18.945312-42.230469-42.230468-42.230469-23.285157 0-42.226563 18.945312-42.226563 42.230469v8.820312h-139.097656v-8.820312c0-23.285157-18.941407-42.230469-42.226563-42.230469-23.289062 0-42.230468 18.945312-42.230468 42.230469v8.820312h-55.105469c-24.25 0-43.980469 19.730469-43.980469 43.980469v325.0625c0 24.25 19.730469 43.980469 43.980469 43.980469h424.039062c24.25 0 43.980469-19.730469 43.980469-43.980469v-325.0625c0-24.25-19.730469-43.980469-43.980469-43.980469zm-103.152343-20.394531c6.378906 0 11.570312 5.191406 11.570312 11.570312v48.304688c0 6.378906-5.191406 11.570312-11.570312 11.570312-6.378907 0-11.570313-5.191406-11.570313-11.570312v-48.300781c0-6.382813 5.191406-11.574219 11.570313-11.574219zm-223.550782 0c6.378906 0 11.570313 5.191406 11.570313 11.570312v48.304688c0 6.378906-5.191407 11.570312-11.570313 11.570312-6.382812 0-11.574218-5.191406-11.574218-11.570312v-48.300781c0-6.382813 5.191406-11.574219 11.574218-11.574219zm-110.65625 64.375c0-7.347656 5.976563-13.324219 13.320313-13.324219h55.105469v8.824219c0 23.285156 18.941406 42.226562 42.230468 42.226562 23.285156 0 42.226563-18.941406 42.226563-42.226562v-8.824219h139.097656v8.824219c0 23.285156 18.941406 42.226562 42.226563 42.226562 23.285156 0 42.230468-18.941406 42.230468-42.226562v-8.824219h60.921875c7.34375 0 13.320313 5.976563 13.320313 13.324219v50.828125h-450.679688zm450.679688 325.0625c0 7.34375-5.976563 13.320312-13.320313 13.320312h-424.039062c-7.34375 0-13.320313-5.976562-13.320313-13.320312v-243.574219h450.679688zm0 0"/><path d="m95.554688 255.699219h59.382812c8.46875 0 15.332031-6.863281 15.332031-15.328125s-6.863281-15.328125-15.332031-15.328125h-59.382812c-8.46875 0-15.332032 6.863281-15.332032 15.328125s6.863282 15.328125 15.332032 15.328125zm0 0"/><path d="m225.78125 255.699219h59.386719c8.464843 0 15.328125-6.863281 15.328125-15.328125s-6.863282-15.328125-15.328125-15.328125h-59.386719c-8.464844 0-15.328125 6.863281-15.328125 15.328125s6.863281 15.328125 15.328125 15.328125zm0 0"/><path d="m356.011719 255.699219h59.386719c8.464843 0 15.328124-6.863281 15.328124-15.328125s-6.863281-15.328125-15.328124-15.328125h-59.386719c-8.464844 0-15.328125 6.863281-15.328125 15.328125s6.863281 15.328125 15.328125 15.328125zm0 0"/><path d="m95.554688 320.296875h59.382812c8.46875 0 15.332031-6.863281 15.332031-15.328125 0-8.46875-6.863281-15.332031-15.332031-15.332031h-59.382812c-8.46875 0-15.332032 6.863281-15.332032 15.332031 0 8.464844 6.863282 15.328125 15.332032 15.328125zm0 0"/><path d="m225.78125 320.296875h59.386719c8.464843 0 15.328125-6.863281 15.328125-15.328125 0-8.46875-6.863282-15.332031-15.328125-15.332031h-59.386719c-8.464844 0-15.328125 6.863281-15.328125 15.332031 0 8.464844 6.863281 15.328125 15.328125 15.328125zm0 0"/><path d="m356.011719 320.296875h59.386719c8.464843 0 15.328124-6.863281 15.328124-15.328125 0-8.46875-6.863281-15.332031-15.328124-15.332031h-59.386719c-8.464844 0-15.328125 6.863281-15.328125 15.332031 0 8.464844 6.863281 15.328125 15.328125 15.328125zm0 0"/><path d="m95.554688 384.890625h59.382812c8.46875 0 15.332031-6.863281 15.332031-15.328125s-6.863281-15.328125-15.332031-15.328125h-59.382812c-8.46875 0-15.332032 6.863281-15.332032 15.328125s6.863282 15.328125 15.332032 15.328125zm0 0"/><path d="m225.78125 384.890625h59.386719c8.464843 0 15.328125-6.863281 15.328125-15.328125s-6.863282-15.328125-15.328125-15.328125h-59.386719c-8.464844 0-15.328125 6.863281-15.328125 15.328125s6.863281 15.328125 15.328125 15.328125zm0 0"/><path d="m356.011719 384.890625h59.386719c8.464843 0 15.328124-6.863281 15.328124-15.328125s-6.863281-15.328125-15.328124-15.328125h-59.386719c-8.464844 0-15.328125 6.863281-15.328125 15.328125s6.863281 15.328125 15.328125 15.328125zm0 0"/></svg>