<?xml version="1.0" encoding="utf-8"?>
<!-- Generator: Adobe Illustrator 23.0.3, SVG Export Plug-In . SVG Version: 6.00 Build 0)  -->
<svg version="1.1" id="Layer_1" xmlns="http://www.w3.org/2000/svg" xmlns:xlink="http://www.w3.org/1999/xlink" x="0px" y="0px"
	 viewBox="0 0 480 480" style="enable-background:new 0 0 480 480;" xml:space="preserve">
<style type="text/css">
	.st0{display:none;}
	.st1{display:inline;fill:#6C757D;}
	.st2{fill:#6C757D;}
</style>
<g class="st0">
	<path class="st1" d="M120.4,197.4c-1.1,3.2-0.1,6.8,2.6,8.9l37,29.6v7.9l-20.4,13.6c-3.6,2.5-4.6,7.4-2.2,11.1s7.4,4.7,11,2.3
		l19.6-13l19.6,13c2.4,1.6,5.4,1.8,8,0.6c2.6-1.3,4.3-3.8,4.5-6.7s-1.2-5.6-3.6-7.2L176,243.7v-7.9l37-29.6c2.7-2.1,3.7-5.7,2.6-8.9
		s-4.2-5.4-7.6-5.4h-80C124.6,192,121.6,194.1,120.4,197.4z M185.2,208L168,221.8L150.8,208H185.2z"/>
	<path class="st1" d="M152,176c3.5,0,6.6-2.3,7.7-5.7s-0.3-7-3.2-9l-48-32c-3.7-2.4-8.6-1.4-11,2.3c-2.4,3.6-1.5,8.6,2.1,11l48,32
		C148.9,175.5,150.4,176,152,176z"/>
	<path class="st1" d="M184,176c1.6,0,3.1-0.5,4.4-1.3l48-32c2.4-1.6,3.8-4.3,3.6-7.2s-1.9-5.4-4.5-6.7s-5.6-1.1-8,0.6l-48,32
		c-2.9,2-4.2,5.6-3.2,9C177.4,173.7,180.5,176,184,176z"/>
	<path class="st1" d="M80,208H32c-4.4,0-8,3.6-8,8s3.6,8,8,8h48c4.4,0,8-3.6,8-8S84.4,208,80,208z"/>
	<path class="st1" d="M256,224h48c4.4,0,8-3.6,8-8s-3.6-8-8-8h-48c-4.4,0-8,3.6-8,8S251.6,224,256,224z"/>
	<path class="st1" d="M472,192H330.4L264,85.7V8c0-3.2-1.9-6.2-4.9-7.4s-6.4-0.6-8.7,1.7L172.7,80h-9.4L85.7,2.3
		C83.4,0,80-0.7,77,0.6c-3.1,1.2-5,4.2-5,7.4v77.9L1,212.1c-1.4,2.5-1.4,5.6,0.1,8C11.7,236.2,25,250.4,40.4,262
		c-0.5,1.5-0.5,3.1,0,4.5c0.7,2,2.1,3.7,4,4.6s4.1,1.1,6.1,0.4l2.2-0.7c8.7,5.7,17.8,10.7,27.2,15v131.6c-9.6,3.4-16,12.5-16,22.6
		v32c0,4.4,3.6,8,8,8h64c4.4,0,8-3.6,8-8v-72h48v17.4c-9.6,3.4-16,12.5-16,22.6v32c0,4.4,3.6,8,8,8h64c4.4,0,8-3.6,8-8v-72h96v16
		c-8.8,0-16,7.2-16,16v40c0,4.4,3.6,8,8,8h64c4.4,0,8-3.6,8-8V240h16v152c0,4.4,3.6,8,8,8h32c4.4,0,8-3.6,8-8V200
		C480,195.6,476.4,192,472,192z M368,208v104c0,4.4-3.6,8-8,8s-8-3.6-8-8V208H368z M248,27.3V80h-52.7L248,27.3z M88,27.3L140.7,80
		H88V27.3z M103.6,245.5c-1.4-4.2-5.9-6.5-10.1-5.1l-38.2,12.7c-14.6-10.4-27.4-23-37.9-37.5l24.2-43.1c0.9,1.4,2.3,2.5,3.9,3l48,16
		c4.2,1.4,8.7-0.9,10.1-5.1s-0.9-8.7-5.1-10.1l-48-16c-0.6-0.2-1.3-0.2-1.9-0.2L84.7,96h166.9l41,65.6c-2-1.5-4.7-2-7.1-1.2l-48,16
		c-4.2,1.4-6.5,5.9-5.1,10.1s5.9,6.5,10.1,5.1l48-16c3.7-1.3,5.9-5.1,5.2-8.9l30.5,48.8c-7,8.3-14.7,15.9-22.9,22.9
		c-2.5,2.1-5.1,4.2-7.7,6.2s-5.3,4-8.2,6c-1.6,1.1-3.2,2.1-4.8,3.2l-40.1-13.4c-4.2-1.4-8.7,0.9-10.1,5.1s0.9,8.7,5.1,10.1l26.9,9
		c-29.7,15.5-62.8,23.6-96.4,23.4c-5.1,0-10.1-0.2-14.9-0.6c-1.2-0.1-2.3-0.1-3.5-0.2c-4.4-0.4-8.6-0.9-12.8-1.5
		c-1.7-0.3-3.4-0.6-5.1-0.9c-2.4-0.4-4.8-0.9-7.1-1.4c-8.3-1.8-16.5-4.1-24.5-6.9H100c-3-1.1-6-2.2-8.9-3.5
		c-0.1-0.1-0.3-0.1-0.4-0.1c-6.2-2.6-12.2-5.5-18-8.7l25.9-8.6C102.7,254.2,105,249.7,103.6,245.5z M288,272c3.4,0,6.5-2.2,7.6-5.5
		c0.2-0.6,0.2-1.2,0.2-1.8c2.9-2,5.6-4,8.2-5.9V312c0,4.4-3.6,8-8,8s-8-3.6-8-8L288,272L288,272z M400,464h-16v-8c0-4.4-3.6-8-8-8
		s-8,3.6-8,8v8h-16v-32h8c4.4,0,8-3.6,8-8v-32c0-4.4-3.6-8-8-8H248c-4.4,0-8,3.6-8,8v72h-16v-8c0-4.4-3.6-8-8-8s-8,3.6-8,8v8h-16
		v-24c0-4.4,3.6-8,8-8s8-3.6,8-8v-32c0-4.4-3.6-8-8-8h-64c-4.4,0-8,3.6-8,8v72h-16v-8c0-4.4-3.6-8-8-8s-8,3.6-8,8v8H80v-24
		c0-4.4,3.6-8,8-8s8-3.6,8-8V292.2c17.1,5.9,34.8,9.6,52.8,11c0.4,0,0.8,0,1.2,0.1c5.8,0.4,11.8,0.7,18,0.7
		c36.2,0.2,71.9-8.3,104-25v33c0,13.3,10.7,24,24,24s24-10.7,24-24v-66.6c5.7-5.2,11-10.7,16-16.5V312c0,13.3,10.7,24,24,24
		s24-10.7,24-24V208h16V464z M464,384h-16V232c0-4.4-3.6-8-8-8h-24v-16h48V384z"/>
	<path class="st1" d="M160,304c-17.7,0-32,14.3-32,32s14.3,32,32,32s32-14.3,32-32S177.7,304,160,304z M160,352c-8.8,0-16-7.2-16-16
		s7.2-16,16-16s16,7.2,16,16S168.8,352,160,352z"/>
</g>
<g>
	<path class="st2" d="M472,144H352V72c0-4.4-3.6-8-8-8H8c-4.4,0-8,3.6-8,8v208c0,4.4,3.6,8,8,8h48c4.4,0,8-3.6,8-8V128h16v288
		c-8.8,0-16,7.2-16,16v40c0,4.4,3.6,8,8,8h64c4.4,0,8-3.6,8-8v-88h64v32c-8.8,0-16,7.2-16,16v40c0,4.4,3.6,8,8,8h64c4.4,0,8-3.6,8-8
		v-88h112v32c-8.8,0-16,7.2-16,16v40c0,4.4,3.6,8,8,8h64c4.4,0,8-3.6,8-8V192h24c4.4,0,8-3.6,8-8v-32C480,147.6,476.4,144,472,144z
		 M336,272h-32V120c0-4.4-3.6-8-8-8h-24V80h64V272z M272,128h16v16h-16V128z M256,272h-36.3L186,231.5l28.7-43
		c1.6-2.5,1.8-5.6,0.4-8.2c-1.4-2.6-4.1-4.2-7.1-4.2h-64c-2.9,0-5.7,1.6-7.1,4.2c-1.4,2.6-1.2,5.8,0.4,8.2l28.7,43L132.3,272H96V80
		h160V272z M158.9,192H193l-17,25.6L158.9,192z M176,244.5l22.9,27.5h-45.8L176,244.5z M56,112c-4.4,0-8,3.6-8,8v152H16V80h64v32H56
		z M432,464h-16v-8c0-4.4-3.6-8-8-8s-8,3.6-8,8v8h-16v-32h8c4.4,0,8-3.6,8-8v-48c0-4.4-3.6-8-8-8H264c-4.4,0-8,3.6-8,8v88h-16v-8
		c0-4.4-3.6-8-8-8s-8,3.6-8,8v8h-16v-32h8c4.4,0,8-3.6,8-8v-48c0-4.4-3.6-8-8-8h-80c-4.4,0-8,3.6-8,8v88h-16v-8c0-4.4-3.6-8-8-8
		s-8,3.6-8,8v8H80v-32h8c4.4,0,8-3.6,8-8V288h168c4.4,0,8-3.6,8-8V160h16v120c0,4.4,3.6,8,8,8h48c4.4,0,8-3.6,8-8V160h80V464z
		 M464,176h-16v-16h16V176z"/>
	<path class="st2" d="M208,128h16v16h-16V128z"/>
	<path class="st2" d="M128,128h16v16h-16V128z"/>
</g>
</svg>
