<?xml version="1.0" encoding="utf-8"?>
<!-- Generator: Adobe Illustrator 23.0.6, SVG Export Plug-In . SVG Version: 6.00 Build 0)  -->
<svg version="1.1" id="Layer_1" xmlns="http://www.w3.org/2000/svg" xmlns:xlink="http://www.w3.org/1999/xlink" x="0px" y="0px"
	 viewBox="0 0 512 512" style="enable-background:new 0 0 512 512;" xml:space="preserve">
<g>
	<g>
		<g>
			<path d="M360.2,384.6l-213.4,0c-5.9,0-10.7,4.8-10.7,10.7c0,5.9,4.8,10.7,10.7,10.7l213.4,0c5.9,0,10.7-4.8,10.7-10.7
				C370.9,389.4,366.1,384.6,360.2,384.6z"/>
			<path d="M317.5,427.3h-128c-5.9,0-10.7,4.8-10.7,10.7s4.8,10.7,10.7,10.7h128c5.9,0,10.7-4.8,10.7-10.7
				C328.2,432,323.4,427.3,317.5,427.3z"/>
			<path d="M405.3,64H384V42c0-23.3-19.7-42.2-42.7-42c-3.3,0-6.1,0.5-9.5,1.3L104.4,64.2C81.9,65.4,64,83.9,64,106.7v362.7
				c0,23.5,19.1,42.7,42.7,42.7h298.7c23.5,0,42.7-19.1,42.7-42.7V106.7C448,83.1,428.9,64,405.3,64z M337.3,22
				c12.4-3.2,25.4,6.9,25.4,20v22H185.3L337.3,22z M426.7,469.3c0,11.8-9.6,21.3-21.3,21.3H106.7c-11.8,0-21.3-9.6-21.3-21.3V106.7
				c0-11.8,9.6-21.3,21.3-21.3h298.7c11.8,0,21.3,9.6,21.3,21.3V469.3z"/>
		</g>
	</g>
</g>
<path d="M296.6,306c-5,5.9-13.2,7.8-20.3,4.6c-8.4-3.7-17.5-5.6-26.6-5.6c-9.1,0-18.1,1.9-26.6,5.6l-0.2,0.1c-7,3-15.1,1.1-20.1-4.7
	c-5-5.9-5.6-14.2-1.4-20.8l19.8-30.9c6.2-9.7,16.9-15.6,28.5-15.6c11.6,0,22.2,5.8,28.5,15.6l19.8,30.9
	C302.2,291.7,301.6,300.1,296.6,306z M296,242.2c-10.2-15.9-27.5-25.3-46.3-25.3c-18.8,0-36.1,9.5-46.3,25.3L179,280.4
	c-4.1,6.3-5.9,13.7-5.4,21.2c0.5,7.5,3.4,14.5,8.3,20.2c4.9,5.7,11.4,9.6,18.7,11.3c7.3,1.7,14.9,1,21.8-2.1l0.4-0.2
	c17.3-7.5,37.2-7.4,54.5,0.2c4.5,2,9.2,3,14,3c2.6,0,5.2-0.3,7.8-0.9c7.3-1.7,13.8-5.6,18.7-11.3c4.9-5.7,7.8-12.7,8.3-20.2
	c0.5-7.5-1.4-14.8-5.4-21.2L296,242.2z"/>
<path d="M185.6,242.1c7.3-2.8,12.8-8.7,15.6-16.5c2.6-7.5,2.4-15.9-0.6-23.8c-3-7.9-8.5-14.3-15.5-18c-7.3-4-15.4-4.6-22.6-1.8
	c-14.6,5.6-21.3,23.7-15,40.3c5.1,13.2,17,21.6,29,21.6C179.5,243.8,182.6,243.3,185.6,242.1z M162.5,216.5c-3-7.9-0.4-16.4,6-18.8
	c1.1-0.4,2.4-0.7,3.6-0.7c1.9,0,3.9,0.5,5.8,1.6c3.4,1.9,6.1,5.1,7.7,9.1c1.5,4,1.7,8.2,0.4,11.9c-1.2,3.4-3.4,5.8-6.4,6.9l0,0
	C173.2,228.8,165.5,224.4,162.5,216.5z"/>
<path d="M233.1,212.2c18.3,0,33.2-17,33.2-37.8c0-20.8-14.9-37.8-33.2-37.8c-18.3,0-33.2,17-33.2,37.8
	C199.9,195.2,214.8,212.2,233.1,212.2z M233.1,154.5c8.9,0,16.1,8.9,16.1,19.9c0,11-7.2,19.9-16.1,19.9s-16.1-10-16.1-19.9
	C216.9,164.5,224.2,154.5,233.1,154.5z"/>
<path d="M290.3,221.5L290.3,221.5c2.8,0.9,5.7,1.4,8.5,1.4c13.3,0,26.3-9.7,31.3-24.6c2.9-8.6,2.7-17.7-0.5-25.6
	c-3.3-8.3-9.5-14.3-17.5-16.9c-7.9-2.6-16.5-1.5-24.1,3.1c-7.3,4.4-12.9,11.6-15.7,20.2C266.3,197.1,274.4,216.2,290.3,221.5z
	 M288,184.2c1.5-4.5,4.4-8.3,8.1-10.5c3.4-2.1,7.2-2.6,10.6-1.5c3.4,1.1,6.1,3.8,7.6,7.5c1.6,4,1.7,8.8,0.2,13.3
	c-3,9.1-11.4,14.5-18.7,12C288.5,202.6,285,193.3,288,184.2z"/>
<path d="M360.2,217.1L360.2,217.1c-12.6-9.3-31.5-5.3-42.1,9c-10.6,14.3-8.9,33.5,3.7,42.8c4.6,3.4,10,5,15.6,5
	c9.7,0,19.8-4.9,26.5-14C374.4,245.6,372.8,226.4,360.2,217.1z M350.9,250.3c-5.1,6.8-13.6,9.1-19.1,5c-5.5-4-5.8-12.9-0.7-19.7
	c3.4-4.5,8.3-7,12.8-7c2.3,0,4.5,0.6,6.3,2C355.6,234.7,355.9,243.5,350.9,250.3z"/>
</svg>
