<?xml version="1.0" encoding="utf-8"?>
<!-- Generator: Adobe Illustrator 23.0.3, SVG Export Plug-In . SVG Version: 6.00 Build 0)  -->
<svg version="1.1" id="Capa_1" xmlns="http://www.w3.org/2000/svg" xmlns:xlink="http://www.w3.org/1999/xlink" x="0px" y="0px"
	 viewBox="0 0 679.6 575.8" style="enable-background:new 0 0 679.6 575.8;" xml:space="preserve">
<style type="text/css">
	.st0{display:none;}
	.st1{display:inline;}
	.st2{fill:#FFFFFF;}
</style>
<g class="st0">
	<g class="st1">
		<g>
			<path class="st2" d="M296,281.4c-5.5,0-10,4.5-10,10s4.5,10,10,10s10-4.5,10-10S301.5,281.4,296,281.4z"/>
			<path class="st2" d="M385.2,335.2c-9.4-9.4-32.1-34.7-50-75.9c-13.3-32-44.3-52.7-79-52.7s-65.7,20.7-79,52.7
				c-22.5,51.6-53.2,78.9-53.5,79.2l-0.1,0.1C105.4,354.9,95,378.1,95,402.4c0,29.7,14.2,55.6,38.7,71.9
				c22.9,15.3,51.2,19.8,77.8,12.6c13.3-3.6,28.7-5.6,44.5-5.6c16.1,0,31.7,2,45.2,5.8c25.8,7.2,54.1,3.3,77.4-12.2
				c24.8-16.4,39.2-42.5,39.2-72.5C417.9,376,406,351.6,385.2,335.2z M367.6,458.3c-18,11.9-40.3,15.4-61,9.6
				c-15.2-4.3-32.7-6.5-50.6-6.5c-17.6,0-34.8,2.2-49.8,6.3c-21,5.7-43.3,2.1-61.4-9.9C126,445.2,115,425.6,115,402.5
				c0-18.6,8-36.4,21.8-48.9c2.1-1.9,34.6-30.9,58.7-86.3c0-0.1,0-0.1,0.1-0.2c10.2-24.6,34-40.4,60.6-40.4s50.4,15.9,60.6,40.4
				c0,0.1,0,0.1,0.1,0.2c19.6,45,44.8,72.7,54.7,82.5c0.3,0.3,0.6,0.5,0.9,0.8c16.1,12.5,25.4,31.4,25.4,51.8
				C397.9,425.7,386.7,445.6,367.6,458.3z"/>
			<path class="st2" d="M323.2,321.2c-3-4.6-9.2-5.9-13.8-2.9c-4.6,3-5.9,9.2-2.9,13.8c15.2,23.4,29.6,38.9,36.9,46.1
				c3.9,3.9,10.2,3.9,14.1-0.1c3.9-3.9,3.9-10.3-0.1-14.1C350.8,357.4,337.4,343,323.2,321.2z"/>
			<path class="st2" d="M223.6,157.9c9.6-16.8,13.6-39.1,11-61.2c-5.1-43-34.7-79-67.9-75.1c-15,1.8-28.3,11.6-37.5,27.7
				c-9.6,16.8-13.6,39.1-11,61.2C126.5,180.8,191.9,213.3,223.6,157.9z M146.6,59.3c5.5-9.6,14-17.9,25-17.9
				c19.7,0,39.4,26.4,43.1,57.7c2.1,17.9-1,35.8-8.5,48.9c-23,40.3-62.7,6.3-68.1-39.8C136,90.2,139.1,72.4,146.6,59.3z"/>
			<path class="st2" d="M127.8,265.5c2.9-17.8-0.6-37.5-9.9-55.5s-23.3-32.2-39.5-40.2c-17.2-8.4-34.9-8.9-49.7-1.2
				C13.9,176.2,4.1,190.8,1,209.8c-2.9,17.8,0.6,37.5,9.9,55.5s23.3,32.2,39.5,40.2c16.1,7.9,33.9,9.4,49.6,1.2
				C114.9,299.1,124.7,284.4,127.8,265.5z M90.9,288.9c-9,4.7-20.3,4.2-31.7-1.4c-12.4-6.1-23.2-17.2-30.6-31.4
				c-7.3-14.2-10.1-29.5-7.9-43.1c2-12.5,8.1-22,17.2-26.6l0,0c10-5.2,21.6-3.5,31.7,1.4c12.4,6.1,23.2,17.2,30.6,31.4
				c7.3,14.2,10.1,29.5,7.9,43.1C106,274.8,99.9,284.3,90.9,288.9z"/>
			<path class="st2" d="M331,186.1c30.3,0,58-33.1,63-75.4c5.3-45-17.4-89.1-53.4-89.1c-30.3,0-58,33.1-63,75.4
				C272.3,142,295,186.1,331,186.1z M297.5,99.3c3.7-31.3,23.5-57.7,43.1-57.7c0.9,0,1.7,0,2.4,0.1c10.7,1.2,18.9,10.5,23.8,20
				c6.6,12.9,9.3,29.9,7.3,46.6c-3.8,32.4-25.3,60.2-45.6,57.6h-0.1c-9.1-1.1-17.7-8.4-23.7-20C298.2,133,295.5,116,297.5,99.3z"/>
			<path class="st2" d="M511,209.8c-6.3-38.9-41.5-57.6-77.4-40c-33.5,16.4-55.4,58.8-49.4,95.7c6.4,39.4,42,57.3,77.4,40
				C495.1,289.1,517,246.7,511,209.8z M452.8,287.6c-11.4,5.6-22.6,6.1-31.7,1.4l0,0c-9-4.7-15.1-14.1-17.2-26.6
				c-4.6-28.2,12.8-61.9,38.5-74.5c23.5-11.5,44.6-0.7,48.8,25.2C495.8,241.1,478.5,274.9,452.8,287.6z"/>
		</g>
	</g>
</g>
<path class="st2" d="M615.2,575.8v-64.4h64.4v-92h-64.4V355h-92v64.4h-64.4v92h64.4v64.4H615.2z M477.2,493v-55.2h64.4v-64.4h55.2
	v64.4h64.4V493h-64.4v64.4h-55.2V493H477.2z"/>
<path class="st2" d="M72.6,344.3c-0.7,0.9-1.3,1.8-1.8,2.8L15.4,490.9c-0.3,0.8-0.5,1.7-0.5,2.6c0,0.1,0,0.5,0,0.7
	c0,0.7,0.2,1.5,0.4,2.2c0.1,0.3,0.2,0.5,0.3,0.8c0.4,0.8,0.8,1.5,1.4,2.2c0.8,0.8,1.7,1.4,2.7,1.8s2,0.6,3.1,0.6h265.7
	c4.6,0.3,8.5-3.4,8.6-7.9c0-4.6-3.9-8.3-8.6-8.1H65.2L169,445.3c1-0.4,2-1,2.8-1.8L459,156.3c4.4-3.2,30.1-22.6,33-49.6
	c1.3-15.7-4.7-31.1-16.2-41.9l-24-24c-9.6-11.1-23.8-17.1-38.5-16.5c-24.7,1.7-52.4,31.7-53,32.2L72.6,344.3z M454.6,139.5
	l-77.2-77.2c7-7.6,21.4-20.9,37.1-21.9c0.6-0.1,1.2-0.1,1.8-0.1c9.3,0.4,18.1,4.6,24.1,11.8l24,24c8.1,7.3,12.5,18,11.8,28.9
	C474.6,120.2,461.9,133.2,454.6,139.5z M442.6,150.1l-20.7,20.7l-76.6-76.6L366,73.5L442.6,150.1z M390,202.8l-76.6-76.6l20.7-20.7
	l76.6,76.6L390,202.8z M120.5,388.1c0,2.1,0.8,4.2,2.3,5.7s3.6,2.3,5.7,2.3l35.8-0.2l-5.4,36.2l-55,21.4l-41.2-41.2L84,357.2l36.8-5
	L120.5,388.1z M36.8,479.8l19.7-51.2l31.3,31.3L36.8,479.8z M100.7,338.8L302,137.4l16.7,16.7L200.5,272.3c-3,3.1-3,8.1,0.1,11.2
	s8.1,3.1,11.2,0.1L330,165.4l20.7,20.7L184.5,352.3c-3,3.1-3,8.1,0.1,11.2s8.1,3.1,11.2,0.1L362,197.4l16.7,16.7l-201,201l3.9-26.1
	c0.3-2.3-0.3-4.6-1.9-6.4c-1.5-1.8-3.7-2.8-6.1-2.8l-37,0.2l0.2-37c0-2.3-1-4.5-2.7-6.1c-1.7-1.5-4.1-2.2-6.4-1.9L100.7,338.8z"/>
<path class="st2" d="M373.9,493.8c0-4.4-3.6-8-8-8h-32.4c-4.4,0-8,3.6-8,8s3.6,8,8,8h32.4C370.3,501.8,373.9,498.2,373.9,493.8z"/>
</svg>
