<?xml version="1.0" encoding="utf-8"?>
<!-- Generator: Adobe Illustrator 23.0.3, SVG Export Plug-In . SVG Version: 6.00 Build 0)  -->
<svg version="1.1" id="Layer_1" xmlns="http://www.w3.org/2000/svg" xmlns:xlink="http://www.w3.org/1999/xlink" x="0px" y="0px"
	 viewBox="0 0 1874.1 3170.8" style="enable-background:new 0 0 1874.1 3170.8;" xml:space="preserve">
<style type="text/css">
	.st0{fill:url(#SVGID_2_);}
	.st1{fill:#FFFFFF;}
	.st2{fill:#C3C7FF;}
	.st3{clip-path:url(#SVGID_4_);fill:#ABACFF;}
	.st4{clip-path:url(#SVGID_6_);fill:#9392FF;}
	.st5{clip-path:url(#SVGID_8_);fill:#E6E6FF;}
	.st6{fill:#9392FF;}
	.st7{clip-path:url(#SVGID_10_);fill:#E6E6FF;}
	.st8{clip-path:url(#SVGID_13_);fill:#ABACFF;}
	.st9{clip-path:url(#SVGID_15_);fill:#ABACFF;}
	.st10{clip-path:url(#SVGID_17_);fill:#9392FF;}
	.st11{clip-path:url(#SVGID_19_);fill:#9392FF;}
	.st12{fill:#FFE7DB;}
	.st13{fill:#FFEBDB;}
	.st14{fill:#FFDF94;}
	.st15{fill:#FFBE82;}
	.st16{fill:none;}
</style>
<g id="launch">
	<linearGradient id="SVGID_2_" gradientUnits="userSpaceOnUse" x1="899.7" y1="-2388.8782" x2="899.7" y2="6522.147">
		<stop  offset="0.1518" style="stop-color:#C06AFF"/>
		<stop  offset="0.1797" style="stop-color:#DDE0EF"/>
		<stop  offset="0.1992" style="stop-color:#D7DDF2"/>
		<stop  offset="0.2714" style="stop-color:#C6D5F9"/>
		<stop  offset="0.3506" style="stop-color:#BCD1FE"/>
		<stop  offset="0.4491" style="stop-color:#B9CFFF"/>
		<stop  offset="0.4787" style="stop-color:#C1D0F6"/>
		<stop  offset="0.5278" style="stop-color:#D6D3DC"/>
		<stop  offset="0.5574" style="stop-color:#E5D5CA"/>
		<stop  offset="0.6348" style="stop-color:#FFE0AA"/>
		<stop  offset="0.6406" style="stop-color:#FFE0A2"/>
		<stop  offset="0.6803" style="stop-color:#FFE36C"/>
		<stop  offset="0.71" style="stop-color:#FFE44B"/>
		<stop  offset="0.7263" style="stop-color:#FFE53F"/>
	</linearGradient>
	<ellipse class="st0" cx="899.7" cy="1593.4" rx="1547.5" ry="2275.5"/>
	<g id="clouds">
		<g>
			<path class="st1" d="M444,1246l0-12.5c0-19.6-15.9-35.5-35.4-35.5l-234.4-0.1c-19.6,0-35.5,15.9-35.5,35.4l0,12.5
				c0,19.6-15.9,35.5-35.5,35.4h0c-19.6,0-35.5,15.9-35.5,35.4l0,18.4c0,19.6,15.9,35.5,35.4,35.5l430.9,0.3
				c19.6,0,35.5-15.9,35.5-35.4l0-18.4c0-19.6-15.9-35.5-35.4-35.5l-54.6,0C459.9,1281.5,444,1265.6,444,1246z"/>
		</g>
		<g>
			<path class="st1" d="M1165.6,389.3l0-8.6c0-9.7,7.9-17.5,17.6-17.5l0,0c9.7,0,17.5-7.8,17.6-17.5l0-14.7
				c0-9.7-7.8-17.5-17.5-17.6l-16.1,0c-9.7,0-17.5-7.9-17.5-17.6l0-11.4c0-9.7-7.8-17.5-17.5-17.6l-126-0.1
				c-9.7,0-17.5,7.8-17.6,17.5l0,11.4c0,9.7-30.6,17.5-40.3,17.5l0,0c-9.7,0-17.5,7.8-17.6,17.5l0,11.9c0,9.7-7.9,17.5-17.6,17.5
				l-13.5,0c-9.7,0-17.5,7.8-17.6,17.5l0,11.4c0,9.7-7.9,17.5-17.6,17.5l-18.6,0c-9.7,0-17.5,7.8-17.6,17.5l0,14.7
				c0,9.7,7.8,17.5,17.5,17.6l411.2,0.2c9.7,0,17.5-7.8,17.6-17.5l0-14.7c0-9.7-7.8-17.5-17.5-17.6l-74,0
				C1173.5,406.8,1165.6,399,1165.6,389.3z"/>
		</g>
		<g>
			<path class="st1" d="M1525.4,848.6l0-15.7c0-17.7,14.4-32,32.1-32l0,0c17.7,0,32.1-14.3,32.1-32l0-26.8c0-17.7-14.3-32.1-32-32.1
				l-29.3,0c-17.7,0-32-14.4-32-32.1l0-20.8c0-17.7-14.3-32.1-32-32.1c-32.4,0-64.9,0-97.3-0.1c-2.4,0-4.9,0-7.3,0
				c-41.8,0-83.7,0-125.5-0.1c-2.1,0-13.5,0.2-22.7,9.4c-5.8,5.8-9.4,13.8-9.4,22.7l0,26.8c0,17.7,14.3,32.1,32,32.1l32.2,0
				c17.7,0,32,14.4,32,32.1l0,15.7c0,17.7-14.4,32-32.1,32l-56.7,0c-17.7,0-32.1,14.3-32.1,32l0,20.8c0,17.7-14.4,32-32.1,32
				l-322.6-0.2c-17.7,0-32.1,14.3-32.1,32l0,26.8c0,17.7,14.3,32.1,32,32.1l633,0.4l236.8,0.1c17.7,0,32.1-14.3,32.1-32l0-26.8
				c0-17.7-14.3-32.1-32-32.1l-135.1-0.1C1539.7,880.6,1525.3,866.3,1525.4,848.6z"/>
		</g>
		<g>
			<path class="st1" d="M1677.9,256.1l-52.2,0c-29.5,0-53.5-24-53.5-53.5v0c0-29.5,24-53.5,53.5-53.5l52.2,0
				c29.5,0,53.5,24,53.5,53.5v0C1731.5,232.1,1707.5,256.1,1677.9,256.1z"/>
		</g>
		<g>
			<path class="st1" d="M1384.4,1974.1l0-32.9c0-36.9,30-66.9,66.9-66.8h0c36.9,0,66.9-29.9,66.9-66.8l0-55.9
				c0-36.9-29.9-66.9-66.8-66.9l-61.2,0c-36.9,0-66.9-30-66.8-66.9l0-43.5c0-36.9-29.9-66.9-66.8-66.9l-480.3-0.3
				c-36.9,0-66.9,29.9-66.9,66.8l0,43.5c0,36.9-116.8,66.8-153.7,66.8l0,0c-36.9,0-66.9,29.9-66.9,66.8l0,45.3
				c0,36.9-30,66.9-66.9,66.8l-51.3,0c-36.9,0-66.9,29.9-66.9,66.8l0,43.5c0,36.9-30,66.9-66.9,66.8l-71.1,0
				c-36.9,0-66.9,29.9-66.9,66.8l0,55.9c0,36.9,29.9,66.9,66.8,66.9l1567.8,0.9c36.9,0,66.9-29.9,66.9-66.8l0-55.9
				c0-36.9-29.9-66.9-66.8-66.9l-282-0.2C1414.4,2041,1384.4,2011.1,1384.4,1974.1z"/>
		</g>
		<g>
			<path class="st1" d="M341,858.5l0-7.5c0-11.8-9.6-21.4-21.4-21.4l-141.4-0.1c-11.8,0-21.4,9.6-21.4,21.4l0,7.5
				c0,11.8-9.6,21.4-21.4,21.4h0c-11.8,0-21.4,9.6-21.4,21.4l0,11.1c0,11.8,9.6,21.4,21.4,21.4l259.8,0.2c11.8,0,21.4-9.6,21.4-21.4
				l0-11.1c0-11.8-9.6-21.4-21.4-21.4l-32.9,0C350.6,879.9,341,870.3,341,858.5z"/>
		</g>
	</g>
	<g id="rocket_ship_3_">
		<g id="rocket_ship_4_">
			<g>
				<g>
					<g>
						<path id="SVGID_1_" class="st2" d="M1554.3,625c26.8,13.9,53.6,27.7,80.9,41.6c-14.8,26.3-34.2,66.1-44.4,114.2
							c-7.9,36-7.9,64.2-7.9,70.2c0,5.1,0.5,26.8,2.8,41.1c13.4,74.9,119.7,134.5,149.3,181.2c3.7,6,9.7,16.6,12.5,31
							c2.8,12.5,1.8,23.1,0.9,29.1c-3.7,37.9-31.4,89.2-35.1,96.1c-159.9-45.8-319.4-91-478.8-136.3
							c-112.3-43.9-224.6-88.3-336.9-132.2c28.7-34.7,76.3-79,137.7-80.9c2.8-0.5,6.5-0.5,9.7,0c67.5-3.2,134.5-6.5,201.5-9.7
							c27.3-55,102.1-185.8,246.3-231.5C1513.1,631.9,1533.9,627.7,1554.3,625z"/>
					</g>
					<g>
						<g>
							<g>
								<defs>
									<path id="SVGID_3_" d="M1554.3,625c26.8,13.9,53.6,27.7,80.9,41.6c-14.8,26.3-34.2,66.1-44.4,114.2
										c-7.9,36-7.9,64.2-7.9,70.2c0,5.1,0.5,26.8,2.8,41.1c13.4,74.9,119.7,134.5,149.3,181.2c3.7,6,9.7,16.6,12.5,31
										c2.8,12.5,1.8,23.1,0.9,29.1c-3.7,37.9-31.4,89.2-35.1,96.1c-159.9-45.8-319.4-91-478.8-136.3
										c-112.3-43.9-224.6-88.3-336.9-132.2c28.7-34.7,76.3-79,137.7-80.9c2.8-0.5,6.5-0.5,9.7,0c67.5-3.2,134.5-6.5,201.5-9.7
										c27.3-55,102.1-185.8,246.3-231.5C1513.1,631.9,1533.9,627.7,1554.3,625z"/>
								</defs>
								<clipPath id="SVGID_4_">
									<use xlink:href="#SVGID_3_"  style="overflow:visible;"/>
								</clipPath>
								<ellipse class="st3" cx="1363" cy="915" rx="563.9" ry="475"/>
							</g>
						</g>
					</g>
					<g>
						<g>
							<g>
								<defs>
									<path id="SVGID_5_" d="M1554.3,625c26.8,13.9,53.6,27.7,80.9,41.6c-14.8,26.3-34.2,66.1-44.4,114.2
										c-7.9,36-7.9,64.2-7.9,70.2c0,5.1,0.5,26.8,2.8,41.1c13.4,74.9,119.7,134.5,149.3,181.2c3.7,6,9.7,16.6,12.5,31
										c2.8,12.5,1.8,23.1,0.9,29.1c-3.7,37.9-31.4,89.2-35.1,96.1c-159.9-45.8-319.4-91-478.8-136.3
										c-112.3-43.9-224.6-88.3-336.9-132.2c28.7-34.7,76.3-79,137.7-80.9c2.8-0.5,6.5-0.5,9.7,0c67.5-3.2,134.5-6.5,201.5-9.7
										c27.3-55,102.1-185.8,246.3-231.5C1513.1,631.9,1533.9,627.7,1554.3,625z"/>
								</defs>
								<clipPath id="SVGID_6_">
									<use xlink:href="#SVGID_5_"  style="overflow:visible;"/>
								</clipPath>
								<path class="st4" d="M1790,1255.8c-144.2-116.5-288.9-232.5-433.1-348.9c-211.2,19.4-422.9,39.3-634.6,58.7
									c355.9,122.9,711.7,244.9,1067.6,367.9L1790,1255.8L1790,1255.8z"/>
							</g>
						</g>
					</g>
				</g>
			</g>
			<g>
				<g>
					<g>
						<g>
							<g>
								<g>
									<g>
										<defs>
											<path id="SVGID_7_" d="M1634.7,667c-80,111.8-159.4,223.7-239.4,335.5c-10.6,15.3-77.2,104-184.4,107.7
												c-18,0.5-95.2,3.7-127.1-44.8s-9.2-137.7,68.9-203.8c110-93.8,220-187.6,329.1-281.5c7.9-8.3,22.6-21.3,43.9-30
												c7.9-2.8,54.1-21.3,87.8,2.3C1642.5,572.7,1653.6,620.8,1634.7,667z"/>
										</defs>
										<clipPath id="SVGID_8_">
											<use xlink:href="#SVGID_7_"  style="overflow:visible;"/>
										</clipPath>
										<ellipse class="st5" cx="1331" cy="782.1" rx="398.4" ry="447.4"/>
									</g>
								</g>
							</g>
						</g>
					</g>
				</g>
			</g>
			
				<ellipse transform="matrix(0.6488 -0.7609 0.7609 0.6488 -371.9344 1244.7035)" class="st6" cx="1162.6" cy="1025.3" rx="67" ry="84.6"/>
			<g>
				<g>
					<g>
						<g>
							<g>
								<g>
									<g>
										<defs>
											<path id="SVGID_9_" d="M1174.4,1008.6c22.6,16.6,16.2,53.1,5.1,111.8c-12,64.7-36,93.8-49.5,107.2
												c-10.2,10.2-17.6,17.1-30.5,22.6c-49,19.9-104.4-21.3-112.8-27.7c-35.6-26.3-45.8-59.2-49.9-71.2
												c-7.4-24.5-3.7-38.8-2.8-43c4.2-16.2,13.9-27.7,19.9-33.7c21.3-13.9,55-34.2,101.2-50.4
												C1106.4,1006.7,1150.3,991,1174.4,1008.6z"/>
										</defs>
										<clipPath id="SVGID_10_">
											<use xlink:href="#SVGID_9_"  style="overflow:visible;"/>
										</clipPath>
										<circle class="st7" cx="1054.2" cy="1142.6" r="187.2"/>
									</g>
								</g>
							</g>
						</g>
					</g>
				</g>
				<g>
					<g>
						<g>
							<g>
								<defs>
									<path id="SVGID_12_" d="M1174.4,1008.6c22.6,16.6,16.2,53.1,5.1,111.8c-12,64.7-36,93.8-49.5,107.2
										c-10.2,10.2-17.6,17.1-30.5,22.6c-49,19.9-104.4-21.3-112.8-27.7c-35.6-26.3-45.8-59.2-49.9-71.2
										c-7.4-24.5-3.7-38.8-2.8-43c4.2-16.2,13.9-27.7,19.9-33.7c21.3-13.9,55-34.2,101.2-50.4
										C1106.4,1006.7,1150.3,991,1174.4,1008.6z"/>
								</defs>
								<clipPath id="SVGID_13_">
									<use xlink:href="#SVGID_12_"  style="overflow:visible;"/>
								</clipPath>
								<path class="st8" d="M1130.9,1222.1c-24.5,48.5-100.8,78.6-159,46.7c-61.5-33.7-76.3-120.2-42.5-168.7
									c21.7-31.4,59.2-38.4,67.5-39.7c65.6-9.7,134,46.7,142.3,108.6C1140.2,1176.3,1142.5,1198.5,1130.9,1222.1z"/>
							</g>
						</g>
					</g>
				</g>
			</g>
			
				<ellipse transform="matrix(0.6269 -0.7791 0.7791 0.6269 -519.0128 1239.0575)" class="st6" cx="1034.2" cy="1161.4" rx="57.8" ry="86"/>
			<g>
				<g>
					<g>
						<g>
							<g>
								<defs>
									<path id="SVGID_14_" d="M1253.9,812.1c-37.4,37.9-74.4,76.3-111.8,114.2c-2.3-9.2-4.2-18-6.9-27.3c0-0.5-0.9-3.7-3.7-5.5
										c-2.3-1.4-4.2-0.9-5.1-0.9c-12.5,1.8-25.4,3.7-37.9,5.5c-5.1,0.9-9.7,0.9-13.9-1.8c-0.9-0.9-1.8-1.4-1.8-1.8
										c-24-21.3-201-180.2-208.9-190c-4.2-5.1-3.7-9.2-3.7-9.2c0.5-2.8,2.8-5.1,3.7-5.5c54.5-29.6,94.7-51.3,101.7-54.5
										c5.5-2.3,10.6-2.8,12-2.8c3.2-0.5,6,0.5,8.3,0.9c123.4,52.2,212.6,96.6,236.6,113.7c5.5,4.2,18.5,13.9,26.3,31.4
										C1253.4,791.8,1253.9,803.8,1253.9,812.1z"/>
								</defs>
								<clipPath id="SVGID_15_">
									<use xlink:href="#SVGID_14_"  style="overflow:visible;"/>
								</clipPath>
								<ellipse class="st9" cx="1086.6" cy="750.2" rx="247" ry="210.6"/>
							</g>
						</g>
					</g>
					<g>
						<g>
							<g>
								<defs>
									<path id="SVGID_16_" d="M1253.9,812.1c-37.4,37.9-74.4,76.3-111.8,114.2c-2.3-9.2-4.2-18-6.9-27.3c0-0.5-0.9-3.7-3.7-5.5
										c-2.3-1.4-4.2-0.9-5.1-0.9c-12.5,1.8-25.4,3.7-37.9,5.5c-5.1,0.9-9.7,0.9-13.9-1.8c-0.9-0.9-1.8-1.4-1.8-1.8
										c-24-21.3-201-180.2-208.9-190c-4.2-5.1-3.7-9.2-3.7-9.2c0.5-2.8,2.8-5.1,3.7-5.5c54.5-29.6,94.7-51.3,101.7-54.5
										c5.5-2.3,10.6-2.8,12-2.8c3.2-0.5,6,0.5,8.3,0.9c123.4,52.2,212.6,96.6,236.6,113.7c5.5,4.2,18.5,13.9,26.3,31.4
										C1253.4,791.8,1253.9,803.8,1253.9,812.1z"/>
								</defs>
								<clipPath id="SVGID_17_">
									<use xlink:href="#SVGID_16_"  style="overflow:visible;"/>
								</clipPath>
								<path class="st10" d="M815.3,645.8c91.5,75.3,182.6,150.7,273.6,226c21.3-3.7,42.1-6.9,63.3-10.2
									c5.1,25.9,10.6,51.3,15.7,77.2c-10.6,10.2-21.7,20.3-32.8,30.5L770.4,744.2C785.2,711.4,800.5,678.6,815.3,645.8z"/>
							</g>
						</g>
					</g>
				</g>
			</g>
			<g>
				<g>
					<g>
						<g>
							<g>
								<path id="SVGID_11_" class="st6" d="M1621.3,599.1c-0.9-0.9-2.8-0.5-4.2,0c-0.9,0.5-3.2,0.9-5.5,3.2
									c-123.4,139.6-211.7,239.4-220.9,249.6c-0.9,1.4-4.2,4.6-6.9,9.7c-5.5,10.2-5.1,21.3-5.5,24c0,0.9,0,2.8,0,7.9
									c0,6.9,0,6.9,0,8.3c0.5,5.5,0.5,11.6,3.2,12.5c3.7,1.8,10.6-6.9,12-8.8c12-14.8,98.9-118.8,219.5-263
									c1.8-1.8,4.2-5.1,6.5-9.7c1.8-4.2,2.3-8.3,2.3-10.6c0-0.9,0.9-13.9,0.9-20.3C1622.7,601.4,1622.7,600,1621.3,599.1z"/>
							</g>
							<g>
								<g>
									<g>
										<defs>
											<path id="SVGID_18_" d="M1621.3,599.1c-0.9-0.9-2.8-0.5-4.2,0c-0.9,0.5-3.2,0.9-5.5,3.2
												c-123.4,139.6-211.7,239.4-220.9,249.6c-0.9,1.4-4.2,4.6-6.9,9.7c-5.5,10.2-5.1,21.3-5.5,24c0,0.9,0,2.8,0,7.9
												c0,6.9,0,6.9,0,8.3c0.5,5.5,0.5,11.6,3.2,12.5c3.7,1.8,10.6-6.9,12-8.8c12-14.8,98.9-118.8,219.5-263
												c1.8-1.8,4.2-5.1,6.5-9.7c1.8-4.2,2.3-8.3,2.3-10.6c0-0.9,0.9-13.9,0.9-20.3C1622.7,601.4,1622.7,600,1621.3,599.1z"/>
										</defs>
										<clipPath id="SVGID_19_">
											<use xlink:href="#SVGID_18_"  style="overflow:visible;"/>
										</clipPath>
										<ellipse class="st11" cx="1510.4" cy="796.4" rx="225.1" ry="272.2"/>
									</g>
								</g>
							</g>
						</g>
					</g>
				</g>
			</g>
			<path class="st12" d="M1139.2,912.4"/>
			<path class="st13" d="M1222,1125.5"/>
		</g>
		<g id="blast_2_">
			<path class="st14" d="M-320.7,2683.9l73,61.9c47.1,40.2,118.3,34.2,158.5-12.9l1179.9-1388.8c8.3-10.6,30.5-41.6,26.3-81.8
				c-2.8-30.5-18.5-50.8-39.3-76.7c-13.4-16.6-36.5-41.6-73-61.9c-29.1-16.2-51.3-28.7-81.8-26.3c-40.7,2.8-67.5,29.6-76.7,39.3
				L-333.7,2524.9C-373.9,2572.5-368.3,2643.7-320.7,2683.9z"/>
			<ellipse class="st15" cx="933.1" cy="1282.2" rx="134" ry="134"/>
			<g>
				<path class="st15" d="M719.6,1327c-2.8,3.7-13.9,16.2-24,28.2l-220.9,260.2c-10.2,12-11.6,28.2-2.8,35.6
					c8.8,7.4,24.5,3.7,34.7-8.3l174.2-205.2c10.2-12,24.5-17.1,32.4-10.6c7.4,6,5.1,21.3-5.5,33.3l-83.7,98.4
					c-10.2,12-11.1,28.7-1.8,36c9.2,7.9,25.4,4.2,35.6-7.9l107.7-126.6c10.2-12,27.7-14.8,37.9-5.5c10.6,9.2,10.6,26.3,0.5,38.4
					l-24.5,28.7c-10.2,12-10.2,29.6,0.5,38.4c10.6,8.8,10.6,26.3,0.5,38.4l-104.9,123.9c-10.2,12-11.1,28.7-1.8,36.5
					c9.2,7.9,25.4,4.2,35.6-7.4L909,1516.7c10.2-12,8.8-30.5-3.2-40.7l-159.4-135.9C734.4,1329.3,721.9,1323.8,719.6,1327z"/>
			</g>
			<polygon class="st15" points="831,1195.3 704.3,1344.6 905.4,1520.7 1034.8,1368.6 			"/>
		</g>
		<polygon class="st16" points="-504.2,1828.5 81.8,2200 372.5,2814.3 -504.2,2814.3 		"/>
	</g>
	<g id="explosion">
		<path class="st15" d="M1500,2835.4c-85.2-56.1-177.5-36-195.2-31.8c38.4-79.4,32.8-172.5-15.7-243.1
			c-56.5-82.4-162.3-121-263.5-95c54.5-109.5,25-242.6-68.9-317.3c-97.7-77.7-240.5-72.8-334.5,12.9c-5.9-22.2-22.4-71.7-68.8-110.4
			c-89.4-74.4-206.2-39.2-215.7-36.2c-7.5-26.1-23.5-68.2-58.8-107.8c-74.2-83.1-190.4-106.4-278.8-88.9
			c-112.8,22.3-179.4,110.8-208.7,149.7C-358.1,2166-577,2828.4-237.9,3326.1c480.8,705.7,1701.6,519.9,1912,237.8
			c41.1-55,130.6-230.2,105.6-355.6c-3.8-19-12-57.7-44.8-87.7c-46.3-42.5-109.6-38.2-126.9-36.5
			C1620.6,2984.2,1578.8,2887.3,1500,2835.4z"/>
	</g>
</g>
<g id="explosion_1_">
	<path class="st14" d="M1081.9,3052.1c-85.2-56.1-177.5-36-195.2-31.8c38.4-79.4,32.8-172.5-15.7-243.1
		c-56.5-82.4-162.3-121-263.5-95c54.5-109.5,25-242.6-68.9-317.3c-97.7-77.7-240.5-72.8-334.5,12.9c-5.9-22.2-22.4-71.7-68.8-110.4
		c-89.4-74.4-206.2-39.2-215.7-36.2c-7.5-26.1-23.5-68.2-58.8-107.8c-74.2-83.1-190.4-106.4-278.8-88.9
		c-112.8,22.3-179.4,110.8-208.7,149.7c-149.5,198.5-368.4,860.9-29.3,1358.6c480.8,705.7,1701.6,519.9,1912,237.8
		c41.1-55,130.6-230.2,105.6-355.6c-3.8-19-12-57.7-44.8-87.7c-46.3-42.5-109.6-38.2-126.9-36.5
		C1202.5,3200.9,1160.7,3104,1081.9,3052.1z"/>
</g>
</svg>
