<?xml version="1.0" encoding="utf-8"?>
<!-- Generator: Adobe Illustrator 23.0.3, SVG Export Plug-In . SVG Version: 6.00 Build 0)  -->
<svg version="1.1" id="Layer_1" xmlns="http://www.w3.org/2000/svg" xmlns:xlink="http://www.w3.org/1999/xlink" x="0px" y="0px"
	 viewBox="0 0 1874.1 3170.8" style="enable-background:new 0 0 1874.1 3170.8;" xml:space="preserve">
<style type="text/css">
	.st0{fill:#00002A;}
	.st1{fill:#FF9F94;}
	.st2{fill:#FFAAB7;}
	.st3{fill:#897FFF;}
	.st4{fill:#FFA89B;}
	.st5{fill:#FFD3B1;}
	.st6{fill:#F0C6FF;}
	.st7{fill:#FFFFFF;}
	.st8{fill:url(#SVGID_1_);}
	.st9{fill:#8764FF;}
	.st10{clip-path:url(#SVGID_3_);fill:#5B00EC;}
	.st11{clip-path:url(#SVGID_5_);fill:#6175FF;}
	.st12{clip-path:url(#SVGID_7_);fill:#7336FF;}
	.st13{fill:#5B00EC;}
	.st14{clip-path:url(#SVGID_9_);fill:#7336FF;}
	.st15{clip-path:url(#SVGID_11_);fill:#6175FF;}
	.st16{clip-path:url(#SVGID_13_);fill:#5B00EC;}
	.st17{clip-path:url(#SVGID_16_);fill:#6175FF;}
	.st18{clip-path:url(#SVGID_18_);fill:#4400A5;}
	.st19{fill:#FFE7DB;}
	.st20{fill:#FFEBDB;}
	.st21{fill:#FFE2CD;}
	.st22{fill:#FF5565;}
	.st23{fill:none;}
</style>
<g id="atmosphere">
	<g id="space">
		<ellipse id="dark_sky" class="st0" cx="937" cy="1585.4" rx="1325.2" ry="2242.1"/>
		<g id="stars">
			<circle class="st1" cx="1557.7" cy="1016.4" r="3.9"/>
			<circle class="st2" cx="1419" cy="1159.7" r="3.9"/>
			<circle class="st3" cx="1395.8" cy="845.6" r="3.9"/>
			<ellipse class="st1" cx="1615.8" cy="825" rx="2" ry="2"/>
			<ellipse class="st4" cx="1696.3" cy="816.3" rx="2" ry="2"/>
			<circle class="st5" cx="1360.6" cy="636" r="3.9"/>
			<circle class="st3" cx="1705.6" cy="1042.6" r="3.9"/>
			<ellipse class="st6" cx="1606.7" cy="718.9" rx="2" ry="2"/>
			<circle class="st2" cx="1233.3" cy="582.1" r="3.9"/>
			<circle class="st4" cx="1572.6" cy="702.5" r="3.9"/>
			<circle class="st2" cx="1628.4" cy="500.8" r="3.9"/>
			<circle class="st2" cx="1768.3" cy="602.1" r="3.9"/>
			
				<ellipse transform="matrix(0.9995 -3.267251e-02 3.267251e-02 0.9995 -7.1202 52.4833)" class="st3" cx="1602.4" cy="244.1" rx="3.9" ry="3.9"/>
			
				<ellipse transform="matrix(0.9995 -3.267260e-02 3.267260e-02 0.9995 -6.3431 47.637)" class="st1" cx="1454.4" cy="217.9" rx="3.9" ry="3.9"/>
			
				<ellipse transform="matrix(0.9995 -3.267260e-02 3.267260e-02 0.9995 -6.5139 37.9788)" class="st5" cx="1158.8" cy="218.3" rx="3.9" ry="3.9"/>
			<ellipse class="st6" cx="1404.3" cy="600.4" rx="2" ry="2"/>
			<ellipse class="st2" cx="1491" cy="706.6" rx="2" ry="2"/>
			<ellipse class="st3" cx="1188.1" cy="698.8" rx="2" ry="2"/>
			<ellipse class="st4" cx="1142.2" cy="125.6" rx="2" ry="2"/>
			<ellipse class="st5" cx="1332.7" cy="46.3" rx="2" ry="2"/>
			<ellipse class="st6" cx="1274.2" cy="115.4" rx="2" ry="2"/>
			<ellipse class="st1" cx="1515.5" cy="208.2" rx="2" ry="2"/>
			<ellipse class="st4" cx="1440.8" cy="177" rx="2" ry="2"/>
			
				<ellipse transform="matrix(0.9992 -4.010333e-02 4.010333e-02 0.9992 -2.2382 62.2263)" class="st4" cx="1549.9" cy="86.9" rx="3.9" ry="3.9"/>
			<ellipse class="st1" cx="1082.1" cy="265.9" rx="2" ry="2"/>
			<ellipse class="st1" cx="1022.3" cy="216.9" rx="2" ry="2"/>
			<circle class="st6" cx="976.6" cy="313.1" r="2"/>
			<ellipse class="st6" cx="1592.8" cy="506.9" rx="2" ry="2"/>
			<ellipse class="st2" cx="1567.9" cy="372" rx="2" ry="2"/>
			<polygon class="st7" points="1674.9,532.2 1677.5,537.3 1683.1,538.2 1679,542.2 1680.1,547.8 1675,545.2 1669.9,547.9 
				1670.9,542.2 1666.7,538.3 1672.4,537.4 			"/>
			<polygon class="st7" points="1713.1,293.4 1715.6,298.5 1721.4,299.3 1717.3,303.3 1718.3,309 1713.1,306.3 1708.1,309 
				1709,303.4 1704.9,299.4 1710.6,298.5 			"/>
			<polygon class="st7" points="1499.3,563.5 1501.9,568.6 1507.5,569.3 1503.5,573.4 1504.5,579 1499.4,576.4 1494.4,579.1 
				1495.3,573.4 1491.2,569.4 1496.9,568.6 			"/>
			<polygon class="st7" points="1156.7,888.4 1159.3,893.5 1165,894.4 1160.9,898.3 1161.9,904 1156.8,901.3 1151.8,904 
				1152.7,898.4 1148.6,894.5 1154.2,893.5 			"/>
			<ellipse class="st6" cx="1472.3" cy="305.6" rx="2" ry="2"/>
			<circle class="st2" cx="1076.7" cy="1195.1" r="3.2"/>
			<circle class="st2" cx="1299.1" cy="1068.1" r="3.2"/>
			<circle class="st4" cx="1001.7" cy="945.2" r="1.6"/>
			<ellipse class="st1" cx="1066.1" cy="933" rx="1.6" ry="1.6"/>
			<circle class="st3" cx="1151.1" cy="866.2" r="3.2"/>
			<circle class="st2" cx="1203.1" cy="650.6" r="3.2"/>
			<circle class="st1" cx="1100.6" cy="775" r="3.2"/>
			<circle class="st3" cx="979.6" cy="763.4" r="3.2"/>
			<circle class="st3" cx="834.5" cy="914.9" r="3.2"/>
			<circle class="st3" cx="941.4" cy="980" r="1.6"/>
			<circle class="st4" cx="1401.8" cy="1430.2" r="1.6"/>
			<circle class="st5" cx="1253.4" cy="1506.3" r="1.6"/>
			<circle class="st1" cx="1441.2" cy="1313.3" r="1.6"/>
			<circle class="st6" cx="1523.2" cy="1268.3" r="1.6"/>
			<circle class="st4" cx="1542.7" cy="1126.1" r="1.6"/>
			<polygon class="st7" points="1321.1,59.1 1316.8,62.8 1317.4,68.5 1312.5,65.6 1307.3,67.8 1308.7,62.3 1304.8,58.1 1310.4,57.6 
				1313.3,52.6 1315.5,57.9 			"/>
			<polygon class="st7" points="1399.1,243.5 1394.8,247.3 1395.4,253 1390.6,250 1385.4,252.4 1386.6,246.8 1382.8,242.6 
				1388.4,242.2 1391.3,237.1 1393.6,242.4 			"/>
			
				<ellipse transform="matrix(2.937699e-02 -0.9996 0.9996 2.937699e-02 -1239.3665 1931.9816)" class="st1" cx="375.1" cy="1604.2" rx="3.9" ry="3.9"/>
			<path class="st6" d="M218.2,1959.3c-1,0.5-2.2,0.3-2.7-0.7s-0.3-2.2,0.7-2.7s2.2-0.3,2.7,0.7S219.1,1958.8,218.2,1959.3z"/>
			
				<ellipse transform="matrix(2.937698e-02 -0.9996 0.9996 2.937698e-02 -999.3998 1791.963)" class="st2" cx="423" cy="1410.6" rx="3.9" ry="3.9"/>
			<ellipse class="st3" cx="784.7" cy="1572.1" rx="3.9" ry="3.9"/>
			<ellipse class="st1" cx="421" cy="1798.9" rx="2" ry="2"/>
			<ellipse class="st4" cx="355.8" cy="1846.9" rx="2" ry="2"/>
			<ellipse class="st5" cx="920.5" cy="1735.7" rx="3.9" ry="3.9"/>
			
				<ellipse transform="matrix(2.937707e-02 -0.9996 0.9996 2.937707e-02 -1427.9943 1841.1844)" class="st3" cx="234" cy="1655.9" rx="3.9" ry="3.9"/>
			<ellipse class="st5" cx="188.2" cy="1872" rx="2" ry="2"/>
			<ellipse class="st6" cx="482.2" cy="1886" rx="2" ry="2"/>
			<ellipse class="st2" cx="1057.6" cy="1718.4" rx="3.9" ry="3.9"/>
			<ellipse class="st4" cx="520" cy="1883.1" rx="3.9" ry="3.9"/>
			<ellipse class="st2" cx="756.8" cy="1987.2" rx="3.9" ry="3.9"/>
			
				<ellipse transform="matrix(0.9999 -1.574635e-02 1.574635e-02 0.9999 -32.5176 6.5724)" class="st2" cx="401.1" cy="2068.2" rx="3.9" ry="3.9"/>
			
				<ellipse transform="matrix(0.8635 -0.5043 0.5043 0.8635 -983.4642 757.7823)" class="st3" cx="908.3" cy="2195.9" rx="3.9" ry="3.9"/>
			<ellipse class="st1" cx="1049.5" cy="2144.2" rx="3.9" ry="3.9"/>
			<ellipse class="st5" cx="1304.8" cy="1995.4" rx="3.9" ry="3.9"/>
			<ellipse class="st6" cx="900.6" cy="1788.4" rx="2" ry="2"/>
			<ellipse class="st2" cx="772.3" cy="1740.1" rx="2" ry="2"/>
			<circle class="st3" cx="1038" cy="1594.7" r="2"/>
			<circle class="st4" cx="1365.8" cy="2067.2" r="2"/>
			<ellipse class="st5" cx="1240.7" cy="2231.5" rx="2" ry="2"/>
			<ellipse class="st6" cx="1256.7" cy="2142.2" rx="2" ry="2"/>
			<ellipse class="st1" cx="1001.5" cy="2183.3" rx="2" ry="2"/>
			<ellipse class="st4" cx="1081.8" cy="2172.7" rx="2" ry="2"/>
			
				<ellipse transform="matrix(0.8624 -0.5062 0.5062 0.8624 -1024.9734 839.9252)" class="st4" cx="1032.6" cy="2305.5" rx="3.9" ry="3.9"/>
			<ellipse class="st1" cx="1347.2" cy="1915.8" rx="2" ry="2"/>
			<circle class="st1" cx="1423.4" cy="1928.1" r="2"/>
			<ellipse class="st6" cx="1414.6" cy="1821.9" rx="2" ry="2"/>
			<ellipse class="st6" cx="784.6" cy="1964" rx="2" ry="2"/>
			<ellipse class="st2" cx="873.8" cy="2068.1" rx="2" ry="2"/>
			<polygon class="st7" points="517,2081.7 512.2,2078.6 506.9,2080.7 508.5,2075.1 504.7,2070.8 510.4,2070.5 513.5,2065.7 
				515.5,2071.1 521,2072.4 516.7,2076 			"/>
			<polygon class="st7" points="787.8,2209 783.1,2205.8 777.7,2208.1 779.2,2202.5 775.5,2198.2 781.2,2197.9 784.2,2193 
				786.3,2198.3 791.8,2199.8 787.4,2203.3 			"/>
			<polygon class="st7" points="836.9,1868.1 832.1,1865 826.9,1867.2 828.3,1861.6 824.6,1857.2 830.4,1857 833.3,1852.1 
				835.4,1857.4 840.9,1858.8 836.5,1862.4 			"/>
			<polygon class="st7" points="969.9,1415 965.1,1411.9 959.7,1414 961.3,1408.5 957.6,1404.1 963.3,1403.8 966.3,1399 
				968.4,1404.4 973.8,1405.7 969.5,1409.4 			"/>
			<ellipse class="st6" cx="989.8" cy="2077.5" rx="2" ry="2"/>
			<ellipse class="st2" cx="884.9" cy="1109.8" rx="3.2" ry="3.2"/>
			<ellipse class="st2" cx="756.4" cy="1331.2" rx="3.2" ry="3.2"/>
			<ellipse class="st4" cx="1075.3" cy="1288" rx="1.6" ry="1.6"/>
			<ellipse class="st1" cx="1025.7" cy="1330.9" rx="1.6" ry="1.6"/>
			<ellipse class="st3" cx="985.9" cy="1431.5" rx="3.2" ry="3.2"/>
			<ellipse class="st2" cx="1049.2" cy="1644" rx="3.2" ry="3.2"/>
			<ellipse class="st1" cx="1075.4" cy="1484.9" rx="3.2" ry="3.2"/>
			<ellipse class="st3" cx="1185.8" cy="1434.1" rx="3.2" ry="3.2"/>
			<ellipse class="st3" cx="1235.1" cy="1230.2" rx="3.2" ry="3.2"/>
			<ellipse class="st3" cx="1110" cy="1227.7" rx="1.6" ry="1.6"/>
			
				<ellipse transform="matrix(0.8574 -0.5146 0.5146 0.8574 -481.2538 402.4568)" class="st4" cx="485.8" cy="1069.8" rx="1.6" ry="1.6"/>
			<ellipse class="st5" cx="575.8" cy="929.4" rx="1.6" ry="1.6"/>
			<path class="st1" d="M509.6,1189.2c0.8-0.5,1.8-0.2,2.2,0.6c0.5,0.8,0.2,1.8-0.6,2.2c-0.8,0.5-1.8,0.2-2.2-0.6
				C508.6,1190.7,508.9,1189.7,509.6,1189.2z"/>
			
				<ellipse transform="matrix(0.8574 -0.5146 0.5146 0.8574 -588 418.9611)" class="st6" cx="462.2" cy="1270.7" rx="1.6" ry="1.6"/>
			
				<ellipse transform="matrix(0.857 -0.5154 0.5154 0.857 -726.4022 386.4173)" class="st4" cx="333" cy="1501.9" rx="1.6" ry="1.6"/>
			<polygon class="st7" points="1244.4,2214.7 1246.3,2209.3 1242.9,2204.7 1248.6,2204.7 1251.9,2200.1 1253.6,2205.7 1259,2207.3 
				1254.4,2210.6 1254.4,2216.3 1249.8,2212.9 			"/>
			<polygon class="st7" points="1084.3,2094.3 1086.1,2088.9 1082.8,2084.3 1088.4,2084.4 1091.7,2079.8 1093.4,2085.2 
				1098.8,2086.9 1094.2,2090.2 1094.3,2096 1089.7,2092.5 			"/>
			<ellipse class="st1" cx="724.1" cy="112.8" rx="2" ry="2"/>
			<ellipse class="st4" cx="678.8" cy="45.6" rx="2" ry="2"/>
			<ellipse class="st5" cx="676" cy="426.7" rx="3.9" ry="3.9"/>
			<ellipse class="st6" cx="634.4" cy="170.4" rx="2" ry="2"/>
			<ellipse class="st2" cx="687.8" cy="564.4" rx="3.9" ry="3.9"/>
			
				<ellipse transform="matrix(0.9995 -3.267279e-02 3.267279e-02 0.9995 -6.4599 20.8884)" class="st4" cx="635.9" cy="208.1" rx="3.9" ry="3.9"/>
			<circle class="st2" cx="431.4" cy="252.9" r="3.9"/>
			<circle class="st2" cx="455.8" cy="81.9" r="3.9"/>
			<ellipse class="st3" cx="216.6" cy="395.8" rx="3.9" ry="3.9"/>
			
				<ellipse transform="matrix(0.8496 -0.5274 0.5274 0.8496 -244.6822 219.4572)" class="st1" cx="262.5" cy="538.8" rx="3.9" ry="3.9"/>
			<ellipse class="st5" cx="400.8" cy="800.1" rx="3.9" ry="3.9"/>
			<circle class="st6" cx="624.2" cy="404.7" r="2"/>
			<circle class="st2" cx="677.6" cy="278.4" r="2"/>
			<circle class="st4" cx="326.5" cy="858.1" r="2"/>
			<ellipse class="st5" cx="167.5" cy="726.5" rx="2" ry="2"/>
			<ellipse class="st6" cx="255.9" cy="746" rx="2" ry="2"/>
			<ellipse class="st1" cx="225.4" cy="489.3" rx="2" ry="2"/>
			<ellipse class="st4" cx="232.7" cy="570" rx="2" ry="2"/>
			
				<ellipse transform="matrix(0.8399 -0.5428 0.5428 0.8399 -263.4736 137.9306)" class="st4" cx="102" cy="515.5" rx="3.9" ry="3.9"/>
			<ellipse class="st1" cx="478.5" cy="845.7" rx="2" ry="2"/>
			<circle class="st1" cx="463.2" cy="921.4" r="2"/>
			<ellipse class="st6" cx="569.7" cy="916.9" rx="2" ry="2"/>
			<circle class="st6" cx="453.5" cy="281.6" r="2"/>
			<circle class="st2" cx="345.8" cy="366.6" r="2"/>
			<polygon class="st7" points="437.5,197 440.9,192.4 439,187.1 444.5,188.8 448.9,185.3 449,191 453.7,194.2 448.3,196 
				446.8,201.6 443.3,197 			"/>
			<polygon class="st7" points="208.5,274.8 211.8,270.2 209.8,264.7 215.4,266.5 219.9,263 219.9,268.7 224.7,271.9 219.3,273.7 
				217.6,279.2 214.2,274.6 			"/>
			<polygon class="st7" points="547.1,337.8 550.4,333.2 548.5,327.8 553.9,329.5 558.5,326 558.5,331.7 563.3,334.9 557.8,336.7 
				556.2,342.2 552.8,337.6 			"/>
			<circle class="st6" cx="331.6" cy="482" r="2"/>
			<ellipse class="st2" cx="762.4" cy="559.1" rx="3.2" ry="3.2"/>
			<polygon class="st7" points="184.2,730.8 189.4,732.9 194.2,729.7 193.9,735.4 198.3,738.9 192.8,740.3 190.9,745.7 187.8,741 
				182.2,740.8 185.8,736.3 			"/>
			<polygon class="st7" points="311,575.8 316.3,577.8 321,574.6 320.7,580.3 325.2,583.8 319.7,585.3 317.8,590.6 314.7,585.8 
				308.9,585.7 312.5,581.2 			"/>
			<path class="st6" d="M1754.9,2174.8c-0.7-0.8-0.6-2.1,0.3-2.8c0.8-0.7,2.1-0.6,2.8,0.3c0.7,0.8,0.6,2.1-0.3,2.8
				S1755.6,2175.6,1754.9,2174.8z"/>
			<circle class="st1" cx="1536.6" cy="2309.4" r="2"/>
			<circle class="st4" cx="1604.2" cy="2264.9" r="2"/>
			<circle class="st5" cx="1686.2" cy="2116.5" r="2"/>
			<circle class="st6" cx="1597" cy="2397.1" r="2"/>
			
				<ellipse transform="matrix(0.9999 -1.340953e-02 1.340953e-02 0.9999 -32.4615 21.4189)" class="st4" cx="1581" cy="2431.4" rx="3.9" ry="3.9"/>
			
				<ellipse transform="matrix(0.9999 -1.340953e-02 1.340953e-02 0.9999 -31.8132 24.2963)" class="st2" cx="1795.9" cy="2384.5" rx="3.9" ry="3.9"/>
			<circle class="st2" cx="1359.1" cy="2618.1" r="2"/>
			<polygon class="st7" points="1762.9,2495.5 1758,2498.4 1758.7,2492.7 1754.4,2488.9 1760.1,2487.8 1762.2,2482.6 1765,2487.6 
				1770.8,2488 1767,2492.2 1768.2,2497.8 			"/>
			<path class="st6" d="M1060,2650.9c1-0.5,2.2-0.2,2.7,0.8s0.2,2.2-0.8,2.7s-2.2,0.2-2.7-0.8
				C1058.7,2652.7,1059,2651.5,1060,2650.9z"/>
			
				<ellipse transform="matrix(0.9999 -1.574632e-02 1.574632e-02 0.9999 -40.9979 8.5494)" class="st2" cx="522.4" cy="2607.8" rx="3.9" ry="3.9"/>
			
				<ellipse transform="matrix(0.9999 -1.340954e-02 1.340954e-02 0.9999 -33.9392 12.0324)" class="st2" cx="880.3" cy="2536.9" rx="3.9" ry="3.9"/>
			
				<ellipse transform="matrix(0.881 -0.4731 0.4731 0.881 -1088.0261 463.3479)" class="st3" cx="377.1" cy="2394.6" rx="3.9" ry="3.9"/>
			
				<ellipse transform="matrix(0.881 -0.4731 0.4731 0.881 -1127.4645 401.5747)" class="st1" cx="234.6" cy="2442.1" rx="3.9" ry="3.9"/>
			<ellipse class="st1" cx="283.7" cy="2404.5" rx="2" ry="2"/>
			<ellipse class="st4" cx="203" cy="2412.7" rx="2" ry="2"/>
			
				<ellipse transform="matrix(0.8893 -0.4573 0.4573 0.8893 -1015.1445 369.5258)" class="st4" cx="255.7" cy="2281.7" rx="3.9" ry="3.9"/>
			<ellipse class="st6" cx="494" cy="2630.1" rx="2" ry="2"/>
			<ellipse class="st2" cx="407.7" cy="2523.4" rx="2" ry="2"/>
			<polygon class="st7" points="764.8,2520.1 769.5,2523.4 774.8,2521.5 773.2,2526.9 776.8,2531.3 771,2531.5 767.8,2536.2 
				766,2530.9 760.5,2529.4 765,2525.8 			"/>
			<polygon class="st7" points="497.8,2385.1 502.4,2388.3 507.9,2386.3 506.2,2391.8 509.8,2396.3 504,2396.4 500.9,2401.2 
				498.9,2395.8 493.5,2394.2 498,2390.8 			"/>
			<ellipse class="st6" cx="292.1" cy="2510.9" rx="2" ry="2"/>
			<polygon class="st7" points="198.1,2491.1 196.2,2496.5 199.3,2501.2 193.7,2501 190.3,2505.5 188.6,2500.1 183.3,2498.1 
				188.1,2495.1 188.1,2489.2 192.6,2492.8 			"/>
			
				<ellipse transform="matrix(0.5352 -0.8447 0.8447 0.5352 -1806.4642 1757.0236)" class="st2" cx="693.4" cy="2520.1" rx="3.9" ry="3.9"/>
			
				<ellipse transform="matrix(8.854681e-02 -0.9961 0.9961 8.854681e-02 -1421.5941 2911.7129)" class="st2" cx="880.2" cy="2232.6" rx="3.2" ry="3.2"/>
			
				<ellipse transform="matrix(0.2902 -0.957 0.957 0.2902 -1776.2539 2064.8967)" class="st4" cx="503.8" cy="2229.8" rx="1.6" ry="1.6"/>
			
				<ellipse transform="matrix(0.2902 -0.957 0.957 0.2902 -1771.9655 2211.8301)" class="st1" cx="605" cy="2300.4" rx="1.6" ry="1.6"/>
			
				<ellipse transform="matrix(0.2902 -0.957 0.957 0.2902 -1844.877 2295.9937)" class="st6" cx="625.3" cy="2391.6" rx="1.6" ry="1.6"/>
			<circle class="st5" cx="1789" cy="1446.8" r="3.9"/>
			<circle class="st2" cx="1661.7" cy="1393" r="3.9"/>
			<circle class="st3" cx="1616.5" cy="1509.6" r="2"/>
			<polygon class="st7" points="1585.1,1699.3 1587.6,1704.4 1593.4,1705.2 1589.3,1709.2 1590.3,1714.8 1585.2,1712.2 
				1580.2,1714.9 1581,1709.2 1577,1705.3 1582.6,1704.4 			"/>
			<circle class="st1" cx="1494.5" cy="1743.9" r="1.6"/>
			<circle class="st3" cx="1579.5" cy="1677" r="3.2"/>
			<circle class="st2" cx="1631.5" cy="1461.4" r="3.2"/>
			<circle class="st1" cx="1529" cy="1585.8" r="3.2"/>
			<circle class="st3" cx="1408" cy="1574.2" r="3.2"/>
		</g>
		
			<linearGradient id="SVGID_1_" gradientUnits="userSpaceOnUse" x1="937" y1="2384.3535" x2="937" y2="5555.1235" gradientTransform="matrix(1 0 0 -1 0 5260)">
			<stop  offset="0" style="stop-color:#B7DFF7"/>
			<stop  offset="2.382400e-02" style="stop-color:#B5E1EC;stop-opacity:0.97"/>
			<stop  offset="6.585880e-02" style="stop-color:#AFE6CE;stop-opacity:0.9261"/>
			<stop  offset="0.1212" style="stop-color:#A6EE9E;stop-opacity:0.864"/>
			<stop  offset="0.1869" style="stop-color:#99FA5C;stop-opacity:0.7902"/>
			<stop  offset="0.2138" style="stop-color:#93FF3F;stop-opacity:0.76"/>
			<stop  offset="0.2612" style="stop-color:#93EF42;stop-opacity:0.7131"/>
			<stop  offset="0.3534" style="stop-color:#95C649;stop-opacity:0.6217"/>
			<stop  offset="0.4801" style="stop-color:#978454;stop-opacity:0.4961"/>
			<stop  offset="0.567" style="stop-color:#98535C;stop-opacity:0.41"/>
			<stop  offset="0.6747" style="stop-color:#A05B78;stop-opacity:0.308"/>
			<stop  offset="0.8932" style="stop-color:#AF69AD;stop-opacity:0.1012"/>
			<stop  offset="1" style="stop-color:#B56FC1;stop-opacity:0"/>
		</linearGradient>
		<ellipse class="st8" cx="937" cy="1585.4" rx="1325.2" ry="2242.1"/>
	</g>
	<g id="rocket_ship">
		<g id="rocket_ship_5_">
			<g id="rocket_ship_6_">
				<g>
					<g>
						<g>
							<path id="SVGID_14_" class="st9" d="M1554.3,625c26.8,13.9,53.6,27.7,80.9,41.6c-14.8,26.3-34.2,66.1-44.4,114.2
								c-7.9,36-7.9,64.2-7.9,70.2c0,5.1,0.5,26.8,2.8,41.1c13.4,74.9,119.7,134.5,149.3,181.2c3.7,6,9.7,16.6,12.5,31
								c2.8,12.5,1.8,23.1,0.9,29.1c-3.7,37.9-31.4,89.2-35.1,96.1c-159.9-45.8-319.4-91-478.8-136.3
								c-112.3-43.9-224.6-88.3-336.9-132.2c28.7-34.7,76.3-79,137.7-80.9c2.8-0.5,6.5-0.5,9.7,0c67.5-3.2,134.5-6.5,201.5-9.7
								c27.3-55,102.1-185.8,246.3-231.5C1513.1,631.9,1533.9,627.7,1554.3,625z"/>
						</g>
						<g>
							<g>
								<g>
									<defs>
										<path id="SVGID_2_" d="M1554.3,625c26.8,13.9,53.6,27.7,80.9,41.6c-14.8,26.3-34.2,66.1-44.4,114.2
											c-7.9,36-7.9,64.2-7.9,70.2c0,5.1,0.5,26.8,2.8,41.1c13.4,74.9,119.7,134.5,149.3,181.2c3.7,6,9.7,16.6,12.5,31
											c2.8,12.5,1.8,23.1,0.9,29.1c-3.7,37.9-31.4,89.2-35.1,96.1c-159.9-45.8-319.4-91-478.8-136.3
											c-112.3-43.9-224.6-88.3-336.9-132.2c28.7-34.7,76.3-79,137.7-80.9c2.8-0.5,6.5-0.5,9.7,0c67.5-3.2,134.5-6.5,201.5-9.7
											c27.3-55,102.1-185.8,246.3-231.5C1513.1,631.9,1533.9,627.7,1554.3,625z"/>
									</defs>
									<clipPath id="SVGID_3_">
										<use xlink:href="#SVGID_2_"  style="overflow:visible;"/>
									</clipPath>
									<ellipse class="st10" cx="1363" cy="915" rx="563.9" ry="475"/>
								</g>
							</g>
						</g>
						<g>
							<g>
								<g>
									<defs>
										<path id="SVGID_4_" d="M1554.3,625c26.8,13.9,53.6,27.7,80.9,41.6c-14.8,26.3-34.2,66.1-44.4,114.2
											c-7.9,36-7.9,64.2-7.9,70.2c0,5.1,0.5,26.8,2.8,41.1c13.4,74.9,119.7,134.5,149.3,181.2c3.7,6,9.7,16.6,12.5,31
											c2.8,12.5,1.8,23.1,0.9,29.1c-3.7,37.9-31.4,89.2-35.1,96.1c-159.9-45.8-319.4-91-478.8-136.3
											c-112.3-43.9-224.6-88.3-336.9-132.2c28.7-34.7,76.3-79,137.7-80.9c2.8-0.5,6.5-0.5,9.7,0c67.5-3.2,134.5-6.5,201.5-9.7
											c27.3-55,102.1-185.8,246.3-231.5C1513.1,631.9,1533.9,627.7,1554.3,625z"/>
									</defs>
									<clipPath id="SVGID_5_">
										<use xlink:href="#SVGID_4_"  style="overflow:visible;"/>
									</clipPath>
									<path class="st11" d="M1790,1255.8c-144.2-116.5-288.9-232.5-433.1-348.9c-211.2,19.4-422.9,39.3-634.6,58.7
										c355.9,122.9,711.7,244.9,1067.6,367.9L1790,1255.8L1790,1255.8z"/>
								</g>
							</g>
						</g>
					</g>
				</g>
				<g>
					<g>
						<g>
							<g>
								<g>
									<g>
										<g>
											<defs>
												<path id="SVGID_6_" d="M1634.7,667c-80,111.8-159.4,223.7-239.4,335.5c-10.6,15.3-77.2,104-184.4,107.7
													c-18,0.5-95.2,3.7-127.1-44.8s-9.2-137.7,68.9-203.8c110-93.8,220-187.6,329.1-281.5c7.9-8.3,22.6-21.3,43.9-30
													c7.9-2.8,54.1-21.3,87.8,2.3C1642.5,572.7,1653.6,620.8,1634.7,667z"/>
											</defs>
											<clipPath id="SVGID_7_">
												<use xlink:href="#SVGID_6_"  style="overflow:visible;"/>
											</clipPath>
											<ellipse class="st12" cx="1331" cy="782.1" rx="398.4" ry="447.4"/>
										</g>
									</g>
								</g>
							</g>
						</g>
					</g>
				</g>
				
					<ellipse transform="matrix(0.6488 -0.7609 0.7609 0.6488 -371.9344 1244.7035)" class="st13" cx="1162.6" cy="1025.3" rx="67" ry="84.6"/>
				<g>
					<g>
						<g>
							<g>
								<g>
									<g>
										<g>
											<defs>
												<path id="SVGID_8_" d="M1174.4,1008.6c22.6,16.6,16.2,53.1,5.1,111.8c-12,64.7-36,93.8-49.5,107.2
													c-10.2,10.2-17.6,17.1-30.5,22.6c-49,19.9-104.4-21.3-112.8-27.7c-35.6-26.3-45.8-59.2-49.9-71.2
													c-7.4-24.5-3.7-38.8-2.8-43c4.2-16.2,13.9-27.7,19.9-33.7c21.3-13.9,55-34.2,101.2-50.4
													C1106.4,1006.7,1150.3,991,1174.4,1008.6z"/>
											</defs>
											<clipPath id="SVGID_9_">
												<use xlink:href="#SVGID_8_"  style="overflow:visible;"/>
											</clipPath>
											<circle class="st14" cx="1054.2" cy="1142.6" r="187.2"/>
										</g>
									</g>
								</g>
							</g>
						</g>
					</g>
					<g>
						<g>
							<g>
								<g>
									<defs>
										<path id="SVGID_10_" d="M1174.4,1008.6c22.6,16.6,16.2,53.1,5.1,111.8c-12,64.7-36,93.8-49.5,107.2
											c-10.2,10.2-17.6,17.1-30.5,22.6c-49,19.9-104.4-21.3-112.8-27.7c-35.6-26.3-45.8-59.2-49.9-71.2
											c-7.4-24.5-3.7-38.8-2.8-43c4.2-16.2,13.9-27.7,19.9-33.7c21.3-13.9,55-34.2,101.2-50.4
											C1106.4,1006.7,1150.3,991,1174.4,1008.6z"/>
									</defs>
									<clipPath id="SVGID_11_">
										<use xlink:href="#SVGID_10_"  style="overflow:visible;"/>
									</clipPath>
									<path class="st15" d="M1130.9,1222.1c-24.5,48.5-100.8,78.6-159,46.7c-61.5-33.7-76.3-120.2-42.5-168.7
										c21.7-31.4,59.2-38.4,67.5-39.7c65.6-9.7,134,46.7,142.3,108.6C1140.2,1176.3,1142.5,1198.5,1130.9,1222.1z"/>
								</g>
							</g>
						</g>
					</g>
				</g>
				
					<ellipse transform="matrix(0.6269 -0.7791 0.7791 0.6269 -519.0128 1239.0575)" class="st13" cx="1034.2" cy="1161.4" rx="57.8" ry="86"/>
				<g>
					<g>
						<g>
							<g>
								<g>
									<defs>
										<path id="SVGID_12_" d="M1253.9,812.1c-37.4,37.9-74.4,76.3-111.8,114.2c-2.3-9.2-4.2-18-6.9-27.3c0-0.5-0.9-3.7-3.7-5.5
											c-2.3-1.4-4.2-0.9-5.1-0.9c-12.5,1.8-25.4,3.7-37.9,5.5c-5.1,0.9-9.7,0.9-13.9-1.8c-0.9-0.9-1.8-1.4-1.8-1.8
											c-24-21.3-201-180.2-208.9-190c-4.2-5.1-3.7-9.2-3.7-9.2c0.5-2.8,2.8-5.1,3.7-5.5c54.5-29.6,94.7-51.3,101.7-54.5
											c5.5-2.3,10.6-2.8,12-2.8c3.2-0.5,6,0.5,8.3,0.9c123.4,52.2,212.6,96.6,236.6,113.7c5.5,4.2,18.5,13.9,26.3,31.4
											C1253.4,791.8,1253.9,803.8,1253.9,812.1z"/>
									</defs>
									<clipPath id="SVGID_13_">
										<use xlink:href="#SVGID_12_"  style="overflow:visible;"/>
									</clipPath>
									<ellipse class="st16" cx="1086.6" cy="750.2" rx="247" ry="210.6"/>
								</g>
							</g>
						</g>
						<g>
							<g>
								<g>
									<defs>
										<path id="SVGID_15_" d="M1253.9,812.1c-37.4,37.9-74.4,76.3-111.8,114.2c-2.3-9.2-4.2-18-6.9-27.3c0-0.5-0.9-3.7-3.7-5.5
											c-2.3-1.4-4.2-0.9-5.1-0.9c-12.5,1.8-25.4,3.7-37.9,5.5c-5.1,0.9-9.7,0.9-13.9-1.8c-0.9-0.9-1.8-1.4-1.8-1.8
											c-24-21.3-201-180.2-208.9-190c-4.2-5.1-3.7-9.2-3.7-9.2c0.5-2.8,2.8-5.1,3.7-5.5c54.5-29.6,94.7-51.3,101.7-54.5
											c5.5-2.3,10.6-2.8,12-2.8c3.2-0.5,6,0.5,8.3,0.9c123.4,52.2,212.6,96.6,236.6,113.7c5.5,4.2,18.5,13.9,26.3,31.4
											C1253.4,791.8,1253.9,803.8,1253.9,812.1z"/>
									</defs>
									<clipPath id="SVGID_16_">
										<use xlink:href="#SVGID_15_"  style="overflow:visible;"/>
									</clipPath>
									<path class="st17" d="M815.3,645.8c91.5,75.3,182.6,150.7,273.6,226c21.3-3.7,42.1-6.9,63.3-10.2
										c5.1,25.9,10.6,51.3,15.7,77.2c-10.6,10.2-21.7,20.3-32.8,30.5L770.4,744.2C785.2,711.4,800.5,678.6,815.3,645.8z"/>
								</g>
							</g>
						</g>
					</g>
				</g>
				<g>
					<g>
						<g>
							<g>
								<g>
									<g>
										<g>
											<defs>
												<path id="SVGID_17_" d="M1621.3,599.1c-0.9-0.9-2.8-0.5-4.2,0c-0.9,0.5-3.2,0.9-5.5,3.2
													c-123.4,139.6-211.7,239.4-220.9,249.6c-0.9,1.4-4.2,4.6-6.9,9.7c-5.5,10.2-5.1,21.3-5.5,24c0,0.9,0,2.8,0,7.9
													c0,6.9,0,6.9,0,8.3c0.5,5.5,0.5,11.6,3.2,12.5c3.7,1.8,10.6-6.9,12-8.8c12-14.8,98.9-118.8,219.5-263
													c1.8-1.8,4.2-5.1,6.5-9.7c1.8-4.2,2.3-8.3,2.3-10.6c0-0.9,0.9-13.9,0.9-20.3C1622.7,601.4,1622.7,600,1621.3,599.1z"/>
											</defs>
											<clipPath id="SVGID_18_">
												<use xlink:href="#SVGID_17_"  style="overflow:visible;"/>
											</clipPath>
											<ellipse class="st18" cx="1510.4" cy="796.4" rx="225.1" ry="272.2"/>
										</g>
									</g>
								</g>
							</g>
						</g>
					</g>
				</g>
				<path class="st19" d="M1139.2,912.4"/>
				<path class="st20" d="M1222,1125.5"/>
			</g>
			<g id="blast_3_">
				<path class="st21" d="M-320.7,2683.9l73,61.9c47.1,40.2,118.3,34.2,158.5-12.9l1179.9-1388.8c8.3-10.6,30.5-41.6,26.3-81.8
					c-2.8-30.5-18.5-50.8-39.3-76.7c-13.4-16.6-36.5-41.6-73-61.9c-29.1-16.2-51.3-28.7-81.8-26.3c-40.7,2.8-67.5,29.6-76.7,39.3
					L-333.7,2524.9C-373.9,2572.5-368.3,2643.7-320.7,2683.9z"/>
				<ellipse class="st22" cx="933.1" cy="1282.2" rx="134" ry="134"/>
				<g>
					<path class="st22" d="M719.6,1327c-2.8,3.7-13.9,16.2-24,28.2l-220.9,260.2c-10.2,12-11.6,28.2-2.8,35.6
						c8.8,7.4,24.5,3.7,34.7-8.3l174.2-205.2c10.2-12,24.5-17.1,32.4-10.6c7.4,6,5.1,21.3-5.5,33.3l-83.7,98.4
						c-10.2,12-11.1,28.7-1.8,36c9.2,7.9,25.4,4.2,35.6-7.9l107.7-126.6c10.2-12,27.7-14.8,37.9-5.5c10.6,9.2,10.6,26.3,0.5,38.4
						l-24.5,28.7c-10.2,12-10.2,29.6,0.5,38.4c10.6,8.8,10.6,26.3,0.5,38.4l-104.9,123.9c-10.2,12-11.1,28.7-1.8,36.5
						c9.2,7.9,25.4,4.2,35.6-7.4L909,1516.7c10.2-12,8.8-30.5-3.2-40.7l-159.4-135.9C734.4,1329.3,721.9,1323.8,719.6,1327z"/>
				</g>
				<polygon class="st22" points="831,1195.3 704.3,1344.6 905.4,1520.7 1034.8,1368.6 				"/>
			</g>
			<polygon class="st23" points="-504.2,1828.5 81.8,2200 372.5,2814.3 -504.2,2814.3 			"/>
		</g>
	</g>
</g>
</svg>
