<?xml version="1.0" encoding="utf-8"?>
<!-- Generator: Adobe Illustrator 23.0.6, SVG Export Plug-In . SVG Version: 6.00 Build 0)  -->
<svg version="1.1" id="Layer_1" xmlns="http://www.w3.org/2000/svg" xmlns:xlink="http://www.w3.org/1999/xlink" x="0px" y="0px"
	 viewBox="0 0 512 512" style="enable-background:new 0 0 512 512;" xml:space="preserve">
<style type="text/css">
	.st0{fill:#00002A;}
</style>
<g id="surface1">
	<path class="st0" d="M448.7,64.3C407.9,23.5,353.6,1,295.9,1s-112,22.5-152.8,63.3s-63.3,95.1-63.3,152.8
		c0,44.1,13.1,86.2,37.5,121.8L11.7,443.9C4.1,451.5,0,461.5,0,472.1s4.1,20.7,11.7,28.2c7.8,7.8,18,11.7,28.2,11.7
		c10.2,0,20.4-3.9,28.1-11.6l105.6-105c35.7,24.6,78,37.9,122.3,37.9c57.7,0,112-22.5,152.8-63.3c40.8-40.8,63.3-95.1,63.3-152.8
		S489.5,105.1,448.7,64.3z M46.8,479.1c-3.8,3.8-10.1,3.8-14,0c-1.9-1.9-2.9-4.3-2.9-7c0-2.6,1-5.1,2.9-6.9L136,362.5
		c2.3,2.5,4.6,5,7,7.4c2.3,2.3,4.6,4.4,6.9,6.6L46.8,479.1z M427.5,348.7c-72.6,72.6-190.6,72.6-263.2,0
		c-72.6-72.6-72.6-190.6,0-263.2C199.4,50.4,246.2,31,295.9,31c49.7,0,96.4,19.4,131.6,54.5C500.1,158.1,500.1,276.1,427.5,348.7z"
		/>
	<path class="st0" d="M412.3,100.7c-64.2-64.2-168.7-64.2-232.9,0c-64.2,64.2-64.2,168.7,0,232.9c32.1,32.1,74.3,48.2,116.4,48.2
		c42.2,0,84.3-16.1,116.4-48.2C476.6,269.3,476.6,164.9,412.3,100.7z M391.1,312.3c-52.5,52.5-138,52.5-190.5,0
		c-52.5-52.5-52.5-138,0-190.5c26.3-26.3,60.7-39.4,95.2-39.4c34.5,0,69,13.1,95.2,39.4C443.6,174.4,443.6,259.8,391.1,312.3z"/>
</g>
</svg>
