<?xml version="1.0" encoding="utf-8"?>
<!-- Generator: Adobe Illustrator 23.0.3, SVG Export Plug-In . SVG Version: 6.00 Build 0)  -->
<svg version="1.1" id="Layer_1" xmlns="http://www.w3.org/2000/svg" xmlns:xlink="http://www.w3.org/1999/xlink" x="0px" y="0px"
	 viewBox="0 0 1874.1 3170.8" style="enable-background:new 0 0 1874.1 3170.8;" xml:space="preserve">
<style type="text/css">
	.st0{fill:#00002A;}
	.st1{fill:#FF9F94;}
	.st2{fill:#FFAAB7;}
	.st3{fill:#897FFF;}
	.st4{fill:#FFA89B;}
	.st5{fill:#FFD3B1;}
	.st6{fill:#F0C6FF;}
	.st7{fill:#FFFFFF;}
	.st8{fill:url(#SVGID_1_);}
	.st9{fill:#9392FF;}
	.st10{fill:#A5A9FF;}
	.st11{fill:#C3C7FF;}
	.st12{clip-path:url(#SVGID_4_);fill:#9392FF;}
	.st13{clip-path:url(#SVGID_6_);fill:#9392FF;}
	.st14{fill:#FF9638;}
</style>
<g id="atmosphere">
	<g id="space">
		<ellipse id="dark_sky" class="st0" cx="937" cy="1585.4" rx="1325.2" ry="2242.1"/>
		<g id="stars">
			<circle class="st1" cx="1557.7" cy="1016.4" r="3.9"/>
			<circle class="st2" cx="1419" cy="1159.7" r="3.9"/>
			<circle class="st3" cx="1395.8" cy="845.6" r="3.9"/>
			<ellipse class="st1" cx="1615.8" cy="825" rx="2" ry="2"/>
			<ellipse class="st4" cx="1696.3" cy="816.3" rx="2" ry="2"/>
			<circle class="st5" cx="1360.6" cy="636" r="3.9"/>
			<circle class="st3" cx="1705.6" cy="1042.6" r="3.9"/>
			<ellipse class="st6" cx="1606.7" cy="718.9" rx="2" ry="2"/>
			<circle class="st2" cx="1233.3" cy="582.1" r="3.9"/>
			<circle class="st4" cx="1572.6" cy="702.5" r="3.9"/>
			<circle class="st2" cx="1628.4" cy="500.8" r="3.9"/>
			<circle class="st2" cx="1768.3" cy="602.1" r="3.9"/>
			
				<ellipse transform="matrix(0.9995 -3.267141e-02 3.267141e-02 0.9995 -7.1198 52.4847)" class="st3" cx="1602.5" cy="244.1" rx="3.9" ry="3.9"/>
			
				<ellipse transform="matrix(0.9995 -3.267149e-02 3.267149e-02 0.9995 -6.3429 47.6353)" class="st1" cx="1454.4" cy="217.9" rx="3.9" ry="3.9"/>
			
				<ellipse transform="matrix(0.9995 -3.267149e-02 3.267149e-02 0.9995 -6.5138 37.9775)" class="st5" cx="1158.8" cy="218.3" rx="3.9" ry="3.9"/>
			<ellipse class="st6" cx="1404.3" cy="600.4" rx="2" ry="2"/>
			<ellipse class="st2" cx="1491" cy="706.6" rx="2" ry="2"/>
			<ellipse class="st3" cx="1188.1" cy="698.8" rx="2" ry="2"/>
			<ellipse class="st4" cx="1142.2" cy="125.6" rx="2" ry="2"/>
			<ellipse class="st5" cx="1332.7" cy="46.3" rx="2" ry="2"/>
			<ellipse class="st6" cx="1274.2" cy="115.4" rx="2" ry="2"/>
			<ellipse class="st1" cx="1515.5" cy="208.2" rx="2" ry="2"/>
			<ellipse class="st4" cx="1440.8" cy="177" rx="2" ry="2"/>
			
				<ellipse transform="matrix(0.9992 -4.010316e-02 4.010316e-02 0.9992 -2.2382 62.2261)" class="st4" cx="1549.9" cy="86.9" rx="3.9" ry="3.9"/>
			<ellipse class="st1" cx="1082.1" cy="265.9" rx="2" ry="2"/>
			<path class="st1" d="M1022.3,214.9c1.1,0,2,0.9,2,2s-0.9,2-2,2s-2-0.9-2-2S1021.2,214.9,1022.3,214.9z"/>
			<circle class="st6" cx="976.6" cy="313.1" r="2"/>
			<ellipse class="st6" cx="1592.8" cy="506.9" rx="2" ry="2"/>
			<ellipse class="st2" cx="1567.9" cy="372" rx="2" ry="2"/>
			<polygon class="st7" points="1674.9,532.2 1677.5,537.3 1683.1,538.2 1679,542.2 1680.1,547.8 1675,545.2 1669.9,547.9 
				1670.9,542.2 1666.7,538.3 1672.4,537.4 			"/>
			<polygon class="st7" points="1713.1,293.4 1715.6,298.5 1721.4,299.3 1717.3,303.3 1718.3,309 1713.1,306.3 1708.1,309 
				1709,303.4 1704.9,299.4 1710.6,298.5 			"/>
			<polygon class="st7" points="1499.3,563.5 1501.9,568.6 1507.5,569.3 1503.5,573.4 1504.5,579 1499.4,576.4 1494.4,579.1 
				1495.3,573.4 1491.2,569.4 1496.9,568.6 			"/>
			<polygon class="st7" points="1156.7,888.4 1159.3,893.5 1165,894.4 1160.9,898.3 1161.9,904 1156.8,901.3 1151.8,904 
				1152.7,898.4 1148.6,894.5 1154.2,893.5 			"/>
			<ellipse class="st6" cx="1472.3" cy="305.6" rx="2" ry="2"/>
			<circle class="st2" cx="1076.7" cy="1195.1" r="3.2"/>
			<circle class="st2" cx="1299.1" cy="1068.1" r="3.2"/>
			<circle class="st4" cx="1001.7" cy="945.2" r="1.6"/>
			<ellipse class="st1" cx="1066.1" cy="933" rx="1.6" ry="1.6"/>
			<circle class="st3" cx="1151.1" cy="866.2" r="3.2"/>
			<circle class="st2" cx="1203.1" cy="650.6" r="3.2"/>
			<circle class="st1" cx="1100.6" cy="775" r="3.2"/>
			<circle class="st3" cx="979.6" cy="763.4" r="3.2"/>
			<circle class="st3" cx="834.5" cy="914.9" r="3.2"/>
			<circle class="st3" cx="941.4" cy="980" r="1.6"/>
			<circle class="st4" cx="1401.8" cy="1430.2" r="1.6"/>
			<circle class="st5" cx="1253.4" cy="1506.3" r="1.6"/>
			<circle class="st1" cx="1441.2" cy="1313.3" r="1.6"/>
			<circle class="st6" cx="1523.2" cy="1268.3" r="1.6"/>
			<circle class="st4" cx="1542.7" cy="1126.1" r="1.6"/>
			<polygon class="st7" points="1321.1,59.1 1316.8,62.8 1317.4,68.5 1312.5,65.6 1307.3,67.8 1308.7,62.3 1304.8,58.1 1310.4,57.6 
				1313.3,52.6 1315.5,57.9 			"/>
			<polygon class="st7" points="1399.1,243.5 1394.8,247.3 1395.4,253 1390.6,250 1385.4,252.4 1386.6,246.8 1382.8,242.6 
				1388.4,242.2 1391.3,237.1 1393.6,242.4 			"/>
			
				<ellipse transform="matrix(2.937607e-02 -0.9996 0.9996 2.937607e-02 -1239.277 1932.0835)" class="st1" cx="375.2" cy="1604.2" rx="3.9" ry="3.9"/>
			<path class="st6" d="M218.2,1959.3c-1,0.5-2.2,0.3-2.7-0.7s-0.3-2.2,0.7-2.7s2.2-0.3,2.7,0.7S219.1,1958.8,218.2,1959.3z"/>
			
				<ellipse transform="matrix(2.937605e-02 -0.9996 0.9996 2.937605e-02 -999.3281 1792.0142)" class="st2" cx="423.1" cy="1410.6" rx="3.9" ry="3.9"/>
			<ellipse class="st3" cx="784.7" cy="1572.1" rx="3.9" ry="3.9"/>
			<ellipse class="st1" cx="421" cy="1798.9" rx="2" ry="2"/>
			<ellipse class="st4" cx="355.8" cy="1846.9" rx="2" ry="2"/>
			<ellipse class="st5" cx="920.5" cy="1735.7" rx="3.9" ry="3.9"/>
			
				<ellipse transform="matrix(2.937615e-02 -0.9996 0.9996 2.937615e-02 -1427.9688 1841.2954)" class="st3" cx="234.1" cy="1655.9" rx="3.9" ry="3.9"/>
			<ellipse class="st5" cx="188.2" cy="1872" rx="2" ry="2"/>
			<ellipse class="st6" cx="482.2" cy="1886" rx="2" ry="2"/>
			<ellipse class="st2" cx="1057.6" cy="1718.4" rx="3.9" ry="3.9"/>
			<ellipse class="st4" cx="520" cy="1883.1" rx="3.9" ry="3.9"/>
			<ellipse class="st2" cx="756.8" cy="1987.2" rx="3.9" ry="3.9"/>
			
				<ellipse transform="matrix(0.9999 -1.574597e-02 1.574597e-02 0.9999 -32.5169 6.5723)" class="st2" cx="401.1" cy="2068.2" rx="3.9" ry="3.9"/>
			
				<ellipse transform="matrix(0.8635 -0.5043 0.5043 0.8635 -983.4565 757.7311)" class="st3" cx="908.2" cy="2195.9" rx="3.9" ry="3.9"/>
			<ellipse class="st1" cx="1049.5" cy="2144.2" rx="3.9" ry="3.9"/>
			<ellipse class="st5" cx="1304.8" cy="1995.4" rx="3.9" ry="3.9"/>
			<ellipse class="st6" cx="900.6" cy="1788.4" rx="2" ry="2"/>
			<ellipse class="st2" cx="772.3" cy="1740.1" rx="2" ry="2"/>
			<circle class="st3" cx="1038" cy="1594.7" r="2"/>
			<circle class="st4" cx="1365.8" cy="2067.2" r="2"/>
			<ellipse class="st5" cx="1240.7" cy="2231.5" rx="2" ry="2"/>
			<ellipse class="st6" cx="1256.7" cy="2142.2" rx="2" ry="2"/>
			<ellipse class="st1" cx="1001.5" cy="2183.3" rx="2" ry="2"/>
			<ellipse class="st4" cx="1081.8" cy="2172.7" rx="2" ry="2"/>
			
				<ellipse transform="matrix(0.8624 -0.5062 0.5062 0.8624 -1024.9821 839.9091)" class="st4" cx="1032.6" cy="2305.5" rx="3.9" ry="3.9"/>
			<ellipse class="st1" cx="1347.2" cy="1915.8" rx="2" ry="2"/>
			<circle class="st1" cx="1423.4" cy="1928.1" r="2"/>
			<ellipse class="st6" cx="1414.6" cy="1821.9" rx="2" ry="2"/>
			<ellipse class="st6" cx="784.6" cy="1964" rx="2" ry="2"/>
			<ellipse class="st2" cx="873.8" cy="2068.1" rx="2" ry="2"/>
			<polygon class="st7" points="517,2081.7 512.2,2078.6 506.9,2080.7 508.5,2075.1 504.7,2070.8 510.4,2070.5 513.5,2065.7 
				515.5,2071.1 521,2072.4 516.7,2076 			"/>
			<polygon class="st7" points="787.8,2209 783.1,2205.8 777.7,2208.1 779.2,2202.5 775.5,2198.2 781.2,2197.9 784.2,2193 
				786.3,2198.3 791.8,2199.8 787.4,2203.3 			"/>
			<polygon class="st7" points="836.9,1868.1 832.1,1865 826.9,1867.2 828.3,1861.6 824.6,1857.2 830.4,1857 833.3,1852.1 
				835.4,1857.4 840.9,1858.8 836.5,1862.4 			"/>
			<polygon class="st7" points="969.9,1415 965.1,1411.9 959.7,1414 961.3,1408.5 957.6,1404.1 963.3,1403.8 966.3,1399 
				968.4,1404.4 973.8,1405.7 969.5,1409.4 			"/>
			<ellipse class="st6" cx="989.8" cy="2077.5" rx="2" ry="2"/>
			<ellipse class="st2" cx="884.9" cy="1109.8" rx="3.2" ry="3.2"/>
			<ellipse class="st2" cx="756.4" cy="1331.2" rx="3.2" ry="3.2"/>
			<ellipse class="st4" cx="1075.3" cy="1288" rx="1.6" ry="1.6"/>
			<ellipse class="st1" cx="1025.7" cy="1330.9" rx="1.6" ry="1.6"/>
			<ellipse class="st3" cx="985.9" cy="1431.5" rx="3.2" ry="3.2"/>
			<ellipse class="st2" cx="1049.2" cy="1644" rx="3.2" ry="3.2"/>
			<ellipse class="st1" cx="1075.4" cy="1484.9" rx="3.2" ry="3.2"/>
			<ellipse class="st3" cx="1185.8" cy="1434.1" rx="3.2" ry="3.2"/>
			<ellipse class="st3" cx="1235.1" cy="1230.2" rx="3.2" ry="3.2"/>
			<ellipse class="st3" cx="1110" cy="1227.7" rx="1.6" ry="1.6"/>
			
				<ellipse transform="matrix(0.8574 -0.5146 0.5146 0.8574 -481.2246 402.511)" class="st4" cx="485.8" cy="1069.7" rx="1.6" ry="1.6"/>
			<ellipse class="st5" cx="575.8" cy="929.4" rx="1.6" ry="1.6"/>
			<path class="st1" d="M509.6,1189.2c0.8-0.5,1.8-0.2,2.2,0.6c0.5,0.8,0.2,1.8-0.6,2.2c-0.8,0.5-1.8,0.2-2.2-0.6
				C508.6,1190.7,508.9,1189.7,509.6,1189.2z"/>
			
				<ellipse transform="matrix(0.8574 -0.5146 0.5146 0.8574 -587.9752 419.0112)" class="st6" cx="462.2" cy="1270.6" rx="1.6" ry="1.6"/>
			
				<ellipse transform="matrix(0.857 -0.5154 0.5154 0.857 -726.4153 386.4803)" class="st4" cx="333.1" cy="1501.9" rx="1.6" ry="1.6"/>
			<polygon class="st7" points="1244.4,2214.7 1246.3,2209.3 1242.9,2204.7 1248.6,2204.7 1251.9,2200.1 1253.6,2205.7 1259,2207.3 
				1254.4,2210.6 1254.4,2216.3 1249.8,2212.9 			"/>
			<polygon class="st7" points="1084.3,2094.3 1086.1,2088.9 1082.8,2084.3 1088.4,2084.4 1091.7,2079.8 1093.4,2085.2 
				1098.8,2086.9 1094.2,2090.2 1094.3,2096 1089.7,2092.5 			"/>
			<ellipse class="st1" cx="724.1" cy="112.8" rx="2" ry="2"/>
			<ellipse class="st4" cx="678.8" cy="45.6" rx="2" ry="2"/>
			<ellipse class="st5" cx="676" cy="426.7" rx="3.9" ry="3.9"/>
			<ellipse class="st6" cx="634.4" cy="170.4" rx="2" ry="2"/>
			<ellipse class="st2" cx="687.8" cy="564.4" rx="3.9" ry="3.9"/>
			
				<ellipse transform="matrix(0.9995 -3.267169e-02 3.267169e-02 0.9995 -6.4597 20.8877)" class="st4" cx="635.9" cy="208.1" rx="3.9" ry="3.9"/>
			<circle class="st2" cx="431.4" cy="252.9" r="3.9"/>
			<circle class="st2" cx="455.8" cy="81.9" r="3.9"/>
			<ellipse class="st3" cx="216.6" cy="395.8" rx="3.9" ry="3.9"/>
			
				<ellipse transform="matrix(0.8496 -0.5274 0.5274 0.8496 -244.6794 219.4707)" class="st1" cx="262.5" cy="538.8" rx="3.9" ry="3.9"/>
			<ellipse class="st5" cx="400.8" cy="800.1" rx="3.9" ry="3.9"/>
			<circle class="st6" cx="624.2" cy="404.7" r="2"/>
			<circle class="st2" cx="677.6" cy="278.4" r="2"/>
			<circle class="st4" cx="326.5" cy="858.1" r="2"/>
			<ellipse class="st5" cx="167.5" cy="726.5" rx="2" ry="2"/>
			<ellipse class="st6" cx="255.9" cy="746" rx="2" ry="2"/>
			<ellipse class="st1" cx="225.4" cy="489.3" rx="2" ry="2"/>
			<ellipse class="st4" cx="232.7" cy="570" rx="2" ry="2"/>
			
				<ellipse transform="matrix(0.8399 -0.5428 0.5428 0.8399 -263.4882 137.9198)" class="st4" cx="102" cy="515.5" rx="3.9" ry="3.9"/>
			<ellipse class="st1" cx="478.5" cy="845.7" rx="2" ry="2"/>
			<circle class="st1" cx="463.2" cy="921.4" r="2"/>
			<ellipse class="st6" cx="569.7" cy="916.9" rx="2" ry="2"/>
			<circle class="st6" cx="453.5" cy="281.6" r="2"/>
			<circle class="st2" cx="345.8" cy="366.6" r="2"/>
			<polygon class="st7" points="437.5,197 440.9,192.4 439,187.1 444.5,188.8 448.9,185.3 449,191 453.7,194.2 448.3,196 
				446.8,201.6 443.3,197 			"/>
			<polygon class="st7" points="208.5,274.8 211.8,270.2 209.8,264.7 215.4,266.5 219.9,263 219.9,268.7 224.7,271.9 219.3,273.7 
				217.6,279.2 214.2,274.6 			"/>
			<polygon class="st7" points="547.1,337.8 550.4,333.2 548.5,327.8 553.9,329.5 558.5,326 558.5,331.7 563.3,334.9 557.8,336.7 
				556.2,342.2 552.8,337.6 			"/>
			<circle class="st6" cx="331.6" cy="482" r="2"/>
			<ellipse class="st2" cx="762.4" cy="559.1" rx="3.2" ry="3.2"/>
			<polygon class="st7" points="184.2,730.8 189.4,732.9 194.2,729.7 193.9,735.4 198.3,738.9 192.8,740.3 190.9,745.7 187.8,741 
				182.2,740.8 185.8,736.3 			"/>
			<polygon class="st7" points="311,575.8 316.3,577.8 321,574.6 320.7,580.3 325.2,583.8 319.7,585.3 317.8,590.6 314.7,585.8 
				308.9,585.7 312.5,581.2 			"/>
			<path class="st6" d="M1754.9,2174.8c-0.7-0.8-0.6-2.1,0.3-2.8c0.8-0.7,2.1-0.6,2.8,0.3c0.7,0.8,0.6,2.1-0.3,2.8
				S1755.6,2175.6,1754.9,2174.8z"/>
			<circle class="st1" cx="1536.6" cy="2309.4" r="2"/>
			<circle class="st4" cx="1604.2" cy="2264.9" r="2"/>
			<circle class="st5" cx="1686.2" cy="2116.5" r="2"/>
			<circle class="st6" cx="1597" cy="2397.1" r="2"/>
			
				<ellipse transform="matrix(0.9999 -1.340966e-02 1.340966e-02 0.9999 -32.4618 21.4191)" class="st4" cx="1581" cy="2431.4" rx="3.9" ry="3.9"/>
			
				<ellipse transform="matrix(0.9999 -1.340966e-02 1.340966e-02 0.9999 -31.8135 24.2966)" class="st2" cx="1795.9" cy="2384.5" rx="3.9" ry="3.9"/>
			<circle class="st2" cx="1359.1" cy="2618.1" r="2"/>
			<polygon class="st7" points="1762.9,2495.5 1758,2498.4 1758.7,2492.7 1754.4,2488.9 1760.1,2487.8 1762.2,2482.6 1765,2487.6 
				1770.8,2488 1767,2492.2 1768.2,2497.8 			"/>
			<path class="st6" d="M1060,2650.9c1-0.5,2.2-0.2,2.7,0.8s0.2,2.2-0.8,2.7s-2.2,0.2-2.7-0.8
				C1058.7,2652.7,1059,2651.5,1060,2650.9z"/>
			
				<ellipse transform="matrix(0.9999 -1.574594e-02 1.574594e-02 0.9999 -40.9985 8.5492)" class="st2" cx="522.4" cy="2607.9" rx="3.9" ry="3.9"/>
			
				<ellipse transform="matrix(0.9999 -1.340968e-02 1.340968e-02 0.9999 -33.9395 12.0325)" class="st2" cx="880.3" cy="2536.9" rx="3.9" ry="3.9"/>
			
				<ellipse transform="matrix(0.881 -0.4731 0.4731 0.881 -1088.0162 463.3393)" class="st3" cx="377.1" cy="2394.6" rx="3.9" ry="3.9"/>
			
				<ellipse transform="matrix(0.881 -0.4731 0.4731 0.881 -1127.4419 401.5691)" class="st1" cx="234.6" cy="2442.1" rx="3.9" ry="3.9"/>
			<ellipse class="st1" cx="283.7" cy="2404.5" rx="2" ry="2"/>
			<ellipse class="st4" cx="203" cy="2412.7" rx="2" ry="2"/>
			
				<ellipse transform="matrix(0.8976 -0.4408 0.4408 0.8976 -979.5267 346.2889)" class="st4" cx="255.7" cy="2281.7" rx="3.9" ry="3.9"/>
			<ellipse class="st6" cx="494" cy="2630.1" rx="2" ry="2"/>
			<ellipse class="st2" cx="407.7" cy="2523.4" rx="2" ry="2"/>
			<polygon class="st7" points="764.8,2520.1 769.5,2523.4 774.8,2521.5 773.2,2526.9 776.8,2531.3 771,2531.5 767.8,2536.2 
				766,2530.9 760.5,2529.4 765,2525.8 			"/>
			<polygon class="st7" points="497.8,2385.1 502.4,2388.3 507.9,2386.3 506.2,2391.8 509.8,2396.3 504,2396.4 500.9,2401.2 
				498.9,2395.8 493.5,2394.2 498,2390.8 			"/>
			<ellipse class="st6" cx="292.1" cy="2510.9" rx="2" ry="2"/>
			<polygon class="st7" points="198.1,2491.1 196.2,2496.5 199.3,2501.2 193.7,2501 190.3,2505.5 188.6,2500.1 183.3,2498.1 
				188.1,2495.1 188.1,2489.2 192.6,2492.8 			"/>
			
				<ellipse transform="matrix(0.5352 -0.8447 0.8447 0.5352 -1806.4741 1757.0017)" class="st2" cx="693.4" cy="2520.1" rx="3.9" ry="3.9"/>
			
				<ellipse transform="matrix(8.854435e-02 -0.9961 0.9961 8.854435e-02 -1421.5684 2911.7285)" class="st2" cx="880.2" cy="2232.6" rx="3.2" ry="3.2"/>
			
				<ellipse transform="matrix(0.2902 -0.957 0.957 0.2902 -1776.2454 2064.9529)" class="st4" cx="503.9" cy="2229.8" rx="1.6" ry="1.6"/>
			
				<ellipse transform="matrix(0.2902 -0.957 0.957 0.2902 -1771.9341 2211.9114)" class="st1" cx="605.1" cy="2300.4" rx="1.6" ry="1.6"/>
			
				<ellipse transform="matrix(0.2902 -0.957 0.957 0.2902 -1844.8329 2296.0344)" class="st6" cx="625.3" cy="2391.6" rx="1.6" ry="1.6"/>
			<circle class="st5" cx="1789" cy="1446.8" r="3.9"/>
			<circle class="st2" cx="1661.7" cy="1393" r="3.9"/>
			<circle class="st3" cx="1616.5" cy="1509.6" r="2"/>
			<polygon class="st7" points="1585.1,1699.3 1587.6,1704.4 1593.4,1705.2 1589.3,1709.2 1590.3,1714.8 1585.2,1712.2 
				1580.2,1714.9 1581,1709.2 1577,1705.3 1582.6,1704.4 			"/>
			<circle class="st1" cx="1494.5" cy="1743.9" r="1.6"/>
			<circle class="st3" cx="1579.5" cy="1677" r="3.2"/>
			<circle class="st2" cx="1631.5" cy="1461.4" r="3.2"/>
			<circle class="st1" cx="1529" cy="1585.8" r="3.2"/>
			<circle class="st3" cx="1408" cy="1574.2" r="3.2"/>
		</g>
		
			<linearGradient id="SVGID_1_" gradientUnits="userSpaceOnUse" x1="937" y1="1381.5624" x2="937" y2="-4090.2512" gradientTransform="matrix(1 0 0 1 0 3260)">
			<stop  offset="0.238" style="stop-color:#FFFF35;stop-opacity:0.5"/>
			<stop  offset="0.4202" style="stop-color:#DA8141;stop-opacity:0.41"/>
			<stop  offset="0.6747" style="stop-color:#A05B78;stop-opacity:0.308"/>
			<stop  offset="0.8932" style="stop-color:#AF69AD;stop-opacity:0.1012"/>
			<stop  offset="1" style="stop-color:#B56FC1;stop-opacity:0"/>
		</linearGradient>
		<ellipse class="st8" cx="937" cy="1585.4" rx="1325.2" ry="2242.1"/>
	</g>
</g>
<g id="rocket_ship_landing">
	<path id="wing_2_2_" class="st9" d="M1533.4,2572.9H503.2c-11,0-19.9-9-19.9-19.9l0,0c0-11,9-19.9,19.9-19.9h1030.2
		c11,0,19.9,9,19.9,19.9l0,0C1553.3,2563.9,1544.4,2572.9,1533.4,2572.9z"/>
	<path class="st10" d="M764.2,2368.2c-49.3,9.8-98.6,19.6-148,29.3c-27.6,17.3-36.7,20-38.5,17.8c-4.1-4.9,18.2-44.6,18.1-53
		c0-1.1-0.4-4.8-2.2-7c-1.7-2.1-3.4-2.6-4.4-3c-0.2-0.1-0.5-0.2-0.8-0.3c-11.8-3.5-23.6-7-34.5-10.2c-4.4-1.1-8.2-2.9-11-7
		c-0.6-1.2-1.2-1.9-1.1-2.3c-14.8-27.4-106.8-199.9-110.1-208.8c-0.7-2-1-3.8-1.1-5.2c-0.1-2.1,0.3-4.3,1.4-6.1
		c0.5-0.8,1-1.4,1.3-1.6c36.3-25.9,67.5-48,73.3-51.6c4.6-2.6,8.7-3.3,9.8-3.3c2-0.5,3.7,0,5.2,0.4c0.9,0.3,1.7,0.6,2.5,1.1
		c104.6,63.2,203.8,134,233.2,163.8c6.9,7.4,23.5,25.2,28.1,52.4c0.1,0.5,0.1,0.9,0.2,1.4C787.1,2291.2,784.9,2319.3,764.2,2368.2z"
		/>
	<path id="turbo_2_" class="st10" d="M562.4,2549.5l-147.7,47.9c-62.2,20.2-133.2-25.3-133.2-108.9l0,0c0-83.7,71-129.1,133.2-108.9
		l147.7,47.9c15.1,4.9,25.8,32.1,25.8,61l0,0C588.2,2517.4,577.5,2544.6,562.4,2549.5z"/>
	<g id="feet">
		<path class="st9" d="M763.1,2574l-1.5-0.7c-6-2.7-13.2-0.1-15.9,5.9l-70,152.8c-2.7,6-0.1,13.2,5.9,15.9l1.5,0.7
			c6,2.7,13.2,0.1,15.9-5.9l70-152.8C771.7,2583.9,769.1,2576.7,763.1,2574z"/>
		<path class="st9" d="M883.1,2574l-1.5-0.7c-6-2.7-13.2-0.1-15.9,5.9l-70,152.8c-2.7,6-0.1,13.2,5.9,15.9l1.5,0.7
			c6,2.7,13.2,0.1,15.9-5.9l70-152.8C891.7,2583.9,889.1,2576.7,883.1,2574z"/>
		<path class="st9" d="M1101.6,2574l1.5-0.7c6-2.7,13.2-0.1,15.9,5.9l70,152.8c2.7,6,0.1,13.2-5.9,15.9l-1.5,0.7
			c-6,2.7-13.2,0.1-15.9-5.9l-70-152.8C1092.9,2583.9,1095.6,2576.7,1101.6,2574z"/>
		<path class="st9" d="M1231.6,2574l1.5-0.7c6-2.7,13.2-0.1,15.9,5.9l70,152.8c2.7,6,0.1,13.2-5.9,15.9l-1.5,0.7
			c-6,2.7-13.2,0.1-15.9-5.9l-70-152.8C1222.9,2583.9,1225.6,2576.7,1231.6,2574z"/>
	</g>
	<g id="body_2_">
		<g>
			<path id="SVGID_2_" class="st11" d="M1400.4,2589.1l-722,29.5c-81.7,3.3-151.8-53.9-151.8-127.3l0,0
				c0-73.4,70.1-130.7,151.8-127.3l722,29.5c46.1,1.9,82.6,45.9,82.6,97.9l0,0C1482.9,2543.2,1446.5,2587.2,1400.4,2589.1z"/>
		</g>
		<g>
			<defs>
				<path id="SVGID_3_" d="M1400.4,2589.1l-722,29.5c-81.7,3.3-151.8-53.9-151.8-127.3l0,0c0-73.4,70.1-130.7,151.8-127.3l722,29.5
					c46.1,1.9,82.6,45.9,82.6,97.9l0,0C1482.9,2543.2,1446.5,2587.2,1400.4,2589.1z"/>
			</defs>
			<clipPath id="SVGID_4_">
				<use xlink:href="#SVGID_3_"  style="overflow:visible;"/>
			</clipPath>
			<path id="pilot_window_2_" class="st12" d="M1625.2,2489.7H1238c-17.1,0-31-11-31-24.4l0,0c0-13.4,13.9-24.4,31-24.4h387.1
				c17.1,0,31,11,31,24.4l0,0C1656.2,2478.7,1642.3,2489.7,1625.2,2489.7z"/>
		</g>
		<g>
			<defs>
				<path id="SVGID_5_" d="M1400.4,2589.1l-722,29.5c-81.7,3.3-151.8-53.9-151.8-127.3l0,0c0-73.4,70.1-130.7,151.8-127.3l722,29.5
					c46.1,1.9,82.6,45.9,82.6,97.9l0,0C1482.9,2543.2,1446.5,2587.2,1400.4,2589.1z"/>
			</defs>
			<clipPath id="SVGID_6_">
				<use xlink:href="#SVGID_5_"  style="overflow:visible;"/>
			</clipPath>
			<path id="side_window_2_" class="st13" d="M1124.5,2489.7H737.3c-17.1,0-31-11-31-24.4l0,0c0-13.4,13.9-24.4,31-24.4h387.1
				c17.1,0,31,11,31,24.4l0,0C1155.5,2478.7,1141.6,2489.7,1124.5,2489.7z"/>
		</g>
	</g>
	<path id="wing_1_2_" class="st9" d="M1133.4,2572.9H103.2c-11,0-19.9-9-19.9-19.9l0,0c0-11,9-19.9,19.9-19.9h1030.2
		c11,0,19.9,9,19.9,19.9l0,0C1153.3,2563.9,1144.4,2572.9,1133.4,2572.9z"/>
	<g id="stairs">
	</g>
</g>
<path class="st14" d="M-553.3,3294l2900.8-12.3l-14.8-551.2c-470.6-17.6-960.7-26.9-1464-26.9c-488.4,0-964.3,8.7-1422.1,25.3
	L-553.3,3294z"/>
</svg>
