<?xml version="1.0" encoding="utf-8"?>
<!-- Generator: Adobe Illustrator 23.0.3, SVG Export Plug-In . SVG Version: 6.00 Build 0)  -->
<svg version="1.1" id="Layer_1" xmlns="http://www.w3.org/2000/svg" xmlns:xlink="http://www.w3.org/1999/xlink" x="0px" y="0px"
	 viewBox="0 0 480 480" style="enable-background:new 0 0 480 480;" xml:space="preserve">
<path d="M0,464h480V16H0V464z M16,32h448v416H16V32z"/>
<path d="M32,384h416V48H32V384z M48,64h384v304H48V64z"/>
<path d="M336,408h104v16H336V408z"/>
<path d="M304,408h16v16h-16V408z"/>
<g>
	<g>
		<path d="M277.4,320h-26.7v-69.3c0-2.9-2.4-5.3-5.3-5.3h-26.7V224h5.3c2.9,0,5.3-2.4,5.3-5.3v-5.3H256c2.9,0,5.3-2.4,5.3-5.3V101.4
			c0-2.9-2.4-5.3-5.3-5.3H106.7c-2.9,0-5.3,2.4-5.3,5.3V208c0,2.9,2.4,5.3,5.3,5.3h26.7v5.3c0,2.9,2.4,5.3,5.3,5.3h5.3v21.3h-26.7
			c-2.9,0-5.3,2.4-5.3,5.3V320H85.4c-2.9,0-5.3,2.4-5.3,5.3v21.3c0,2.9,2.4,5.3,5.3,5.3h192c2.9,0,5.3-2.4,5.3-5.3v-21.3
			C282.7,322.4,280.3,320,277.4,320z M229.4,106.7h21.3v96h-21.3V106.7z M133.4,202.7H112v-96h21.3V202.7z M112,341.3H90.7v-10.7
			H112V341.3z M144,341.3h-21.3V256H144V341.3z M208,341.3h-21.3v-90.7c0-2.9-2.4-5.3-5.3-5.3s-5.3,2.4-5.3,5.3v90.7h-21.3V224H208
			V341.3z M165.4,213.4V192h32v21.3H165.4z M202.7,181.4H160c-2.9,0-5.3,2.4-5.3,5.3v26.7H144V106.7h74.7v32v74.7H208v-26.7
			C208,183.8,205.6,181.4,202.7,181.4z M240,341.3h-21.3V256H240V341.3z M272,341.3h-21.3v-10.7H272V341.3z"/>
	</g>
</g>
<g>
	<g>
		<path d="M394.7,320h-16v-32h5.3c2.9,0,5.3-2.4,5.3-5.3V208c0-0.1,0-0.1,0-0.2c0-0.5-0.1-1.1-0.3-1.6c0-0.1-0.1-0.2-0.1-0.4
			c0-0.1,0-0.1-0.1-0.2l-16-32c-1.6-2.6-5-3.5-7.6-1.9c-0.8,0.5-1.5,1.1-1.9,1.9l-14.5,29h-4.1l-14.5-29c-1.6-2.6-5-3.5-7.6-1.9
			c-0.8,0.5-1.5,1.1-1.9,1.9l-16,32c0,0.1,0,0.1-0.1,0.2c0,0.1-0.1,0.2-0.1,0.4c-0.2,0.5-0.3,1.1-0.3,1.6c0,0.1,0,0.1,0,0.2v74.7
			c0,2.9,2.4,5.3,5.3,5.3h5.3v10.7h-21.4v-16c0-2.9-2.4-5.3-5.3-5.3s-5.3,2.4-5.3,5.3V304c0,2.9,2.4,5.3,5.3,5.3h26.7V320h-16
			c-2.9,0-5.3,2.4-5.3,5.3v21.3c0,2.9,2.4,5.3,5.3,5.3h96c2.9,0,5.3-2.4,5.3-5.3v-21.3C400,322.4,397.6,320,394.7,320z M368,188
			l7.4,14.7h-14.7L368,188z M325.3,188l7.4,14.7H318L325.3,188z M314.7,277.3v-64h64v64H314.7z M389.3,341.3H352v-32
			c0-2.9-2.4-5.3-5.3-5.3s-5.3,2.4-5.3,5.3v32H304v-10.7h16c2.9,0,5.3-2.4,5.3-5.3V288H368v37.3c0,2.9,2.4,5.3,5.3,5.3h16V341.3z"/>
	</g>
</g>
<g>
	<g>
		<path d="M339.8,230.9l-10.7-10.7c-2.1-2-5.5-2-7.5,0.1c-2,2.1-2,5.3,0,7.4l10.7,10.7c2.1,2.1,5.5,2.1,7.5,0
			C341.9,236.4,341.9,233,339.8,230.9z"/>
	</g>
</g>
<g>
	<g>
		<path d="M371.6,220.3c-2.1-2-5.3-2-7.4,0l-10.7,10.7c-2.1,2.1-2.1,5.5,0,7.5c2.1,2.1,5.5,2.1,7.5,0l10.7-10.7
			C373.8,225.7,373.8,222.3,371.6,220.3z"/>
	</g>
</g>
<g>
	<g>
		<path d="M352,256h-10.7c-2.9,0-5.3,2.4-5.3,5.3s2.4,5.3,5.3,5.3H352c2.9,0,5.3-2.4,5.3-5.3S355,256,352,256z"/>
	</g>
</g>
<g>
	<g>
		<path d="M202.7,122.7c-8.8,0-16,7.2-16,16s7.2,16,16,16c8.8,0,16-7.2,16-16S211.5,122.7,202.7,122.7z M202.7,144
			c-2.9,0-5.3-2.4-5.3-5.3s2.4-5.3,5.3-5.3s5.3,2.4,5.3,5.3S205.6,144,202.7,144z"/>
	</g>
</g>
<g>
	<g>
		<path d="M160,128c-2.9,0-5.3,2.4-5.3,5.3V144c0,2.9,2.4,5.3,5.3,5.3s5.3-2.4,5.3-5.3v-10.7C165.4,130.4,163,128,160,128z"/>
	</g>
</g>
</svg>
